<svg width="31" height="20" viewBox="0 0 31 20" fill="none" xmlns="http://www.w3.org/2000/svg">
<path d="M30.5124 5.08183L15.709 0.0516796C15.5697 -0.0172265 15.4303 -0.0172265 15.291 0.0516796L0.487641 5.08183C0.208989 5.15073 0 5.42636 0 5.70198C0 5.97761 0.174157 6.25323 0.452809 6.35659L4.70225 8.01034V14.7287C4.70225 14.9699 4.84157 15.211 5.08539 15.3144L13.2708 19.4832C14.664 20.1723 16.336 20.1723 17.7292 19.4832L25.9146 15.3144C26.1584 15.211 26.2978 14.9699 26.2978 14.7287V8.01034L29.2584 6.87339V13.385C29.2584 13.764 29.5719 14.0741 29.9551 14.0741C30.3382 14.0741 30.6517 13.764 30.6517 13.385V6.32214C30.8607 6.18432 31 5.94315 31 5.70198C31 5.42636 30.791 5.15073 30.5124 5.08183ZM24.9045 14.2808L17.1022 18.2429C16.0921 18.7597 14.9079 18.7597 13.8978 18.2429L6.09551 14.2808V8.56158L15.2562 12.0758H15.7438L24.9045 8.56158V14.2808ZM15.5 10.6977L2.71685 5.77089L15.5 1.4298L28.2831 5.77089L15.5 10.6977Z" fill="white"/>
</svg>
