<svg width="22" height="32" viewBox="0 0 22 32" fill="none" xmlns="http://www.w3.org/2000/svg">
<path d="M4.56396 18.7223L21.6558 12.1759C21.6775 12.1695 21.698 12.1591 21.7161 12.1452H21.7582C21.8155 12.109 21.8664 12.0632 21.9088 12.0098C21.9463 11.9599 21.9748 11.9037 21.9932 11.8437C21.9958 11.8315 21.9958 11.8189 21.9932 11.8068C21.9932 11.8068 21.9932 11.8068 21.9932 11.776C22.0023 11.7148 22.0023 11.6526 21.9932 11.5914L20.969 1.64889C20.9724 1.61411 20.9724 1.57907 20.969 1.54429C20.969 1.54429 20.969 1.50123 20.9389 1.47662V1.42124C20.8895 1.34367 20.8236 1.27848 20.7461 1.23051C20.6924 1.1878 20.631 1.15642 20.5653 1.13822H20.5051H20.4388L10.7573 0H10.6187C10.5754 0.00436981 10.5328 0.0147184 10.4922 0.030763H10.4199C10.3597 0.0602562 10.3047 0.0997605 10.2572 0.147661C10.2162 0.191458 10.1816 0.241217 10.1548 0.295323L3.70847 17.8424L1.11788 20.5065C0.370107 21.3624 -0.0291918 22.4777 0.00166377 23.6243C0.0325194 24.7709 0.491198 25.8622 1.28387 26.6748C2.07655 27.4875 3.14331 27.9601 4.26595 27.9961C5.38859 28.032 6.48226 27.6286 7.32324 26.8683L11.6308 22.4753C11.9275 22.1712 12.2801 21.9298 12.6683 21.7652C13.0565 21.6005 13.4727 21.5157 13.8931 21.5157C14.3135 21.5157 14.7297 21.6005 15.1179 21.7652C15.5061 21.9298 15.8587 22.1712 16.1553 22.4753C16.7539 23.0888 17.09 23.9196 17.09 24.7856C17.09 25.6517 16.7539 26.4824 16.1553 27.0959L15.6312 27.6312V27.6619L13.4924 29.8461C13.4201 29.9196 13.3672 30.0107 13.3388 30.1107C13.3103 30.2108 13.3072 30.3167 13.3298 30.4183C13.3534 30.5207 13.4024 30.6152 13.472 30.6927C13.5416 30.7703 13.6296 30.8283 13.7274 30.8613L16.9626 31.9933C17.0266 32.0022 17.0914 32.0022 17.1554 31.9933C17.2347 31.9938 17.3133 31.9783 17.3867 31.9477C17.4601 31.9171 17.5269 31.8719 17.5832 31.8149C17.6596 31.7354 17.7134 31.6361 17.7388 31.5277C17.7643 31.4194 17.7605 31.306 17.7278 31.1997L16.7698 28.2649L17.041 27.988C17.8661 27.1427 18.3295 25.9977 18.3295 24.8041C18.3295 23.6104 17.8661 22.4655 17.041 21.6201C16.2142 20.7778 15.0941 20.3047 13.9262 20.3047C12.7584 20.3047 11.6382 20.7778 10.8115 21.6201L6.50992 26.0192C5.90304 26.6017 5.09797 26.92 4.26523 26.9069C3.43249 26.8937 2.63748 26.55 2.04857 25.9486C1.45966 25.3472 1.12312 24.5353 1.11021 23.6848C1.09729 22.8344 1.40903 22.0122 1.9794 21.3925L4.56396 18.7223ZM6.62438 16.6119L16.065 6.97701L20.3605 11.3638L6.62438 16.6119ZM20.6557 9.92409L16.9205 6.1095L19.9328 3.03322L20.6557 9.92409ZM19.0592 2.18416L16.0469 5.26045L12.3116 1.44585L19.0592 2.18416ZM10.938 1.72887L15.2275 6.1095L5.77491 15.7506L10.938 1.72887ZM15.0408 30.0307L15.818 29.237L16.2035 30.4244L15.0408 30.0307Z" fill="white"/>
</svg>
