<svg width="26" height="26" viewBox="0 0 26 26" fill="none" xmlns="http://www.w3.org/2000/svg">
<path d="M21.8128 20.5164C21.2425 20.5164 20.7798 20.974 20.7798 21.5397C20.7798 22.1044 21.242 22.5625 21.8128 22.5625C22.382 22.5625 22.8447 22.1049 22.8447 21.5397C22.8447 20.974 22.3826 20.5164 21.8128 20.5164ZM21.8123 17.3887C20.9299 17.3887 20.1117 17.6619 19.4358 18.1256C17.9089 16.7057 16.3036 15.6153 14.6942 14.6489C17.0394 13.3392 19.4338 11.9574 21.4285 9.98043C22.5429 8.87691 23.1568 7.40877 23.1568 5.84667C23.1568 4.28458 22.5429 2.81644 21.429 1.71292C20.3146 0.608384 18.8338 0 17.2577 0C15.7072 0 14.2479 0.589086 13.1412 1.6596C12.0334 0.589086 10.5751 0 9.02517 0C7.44958 0 5.96776 0.608384 4.85332 1.71292C3.73939 2.81644 3.12555 4.28458 3.12555 5.84667C3.12555 7.40877 3.73939 8.87691 4.85332 9.98043C6.85367 11.963 9.14455 13.2509 11.5707 14.6149L11.6096 14.6373C10.1401 15.495 8.71978 16.4329 7.48237 17.5466C6.7512 17.0327 5.8827 16.7529 4.96912 16.7529C3.80395 16.7529 2.70847 17.2028 1.88507 18.0194L0.224425 19.6643C0.0804445 19.807 0 20.001 0 20.2031C0 20.4052 0.0809568 20.5987 0.224425 20.7419C0.224937 20.7419 0.224937 20.7419 0.225449 20.7424L1.24202 21.7489C1.54331 22.046 2.02956 22.046 2.32879 21.7484C2.62905 21.4508 2.62905 20.9689 2.32879 20.6713L1.85535 20.2031L2.97235 19.096C3.50574 18.5674 4.21437 18.2764 4.96861 18.2764C5.72233 18.2764 6.43147 18.5674 6.96486 19.0965C8.06598 20.1874 8.06547 21.9637 6.96486 23.0556L5.84888 24.1611L5.37646 23.6929C5.07621 23.3958 4.58995 23.3948 4.28969 23.6924C3.98944 23.99 3.98944 24.4719 4.28969 24.7695L5.30524 25.7771C5.44922 25.9198 5.64444 26 5.84888 26C6.05333 26 6.24803 25.9198 6.39253 25.7771L8.05163 24.1327C9.56266 22.6341 9.72765 20.3031 8.55326 18.6202C9.88444 17.4308 11.4651 16.467 13.1504 15.5133C14.9243 16.5421 16.7007 17.6827 18.3491 19.2077C17.891 19.873 17.6225 20.6764 17.6225 21.5402C17.6225 23.829 19.5019 25.6912 21.8112 25.6912C24.1206 25.6912 26 23.829 26 21.5402C26 19.2514 24.1216 17.3887 21.8123 17.3887ZM13.1591 13.7572C12.8819 13.5998 12.6052 13.4449 12.3301 13.2895C9.99665 11.9782 7.79339 10.7396 5.9406 8.90281C5.1172 8.08672 4.66322 7.00148 4.66322 5.84617C4.66322 4.69085 5.1172 3.60612 5.94111 2.78952C6.76452 1.97293 7.86 1.52299 9.02568 1.52299C10.1914 1.52299 11.2858 1.97293 12.1102 2.78952C12.2455 2.9241 12.3772 3.07797 12.5258 3.27552C12.6708 3.469 12.8993 3.58225 13.1422 3.58225H13.1432C13.3866 3.58174 13.6156 3.46748 13.7601 3.274C13.9072 3.07696 14.0383 2.9241 14.1741 2.78952C14.9986 1.97293 16.094 1.52299 17.2592 1.52299C18.4244 1.52299 19.5193 1.97293 20.3433 2.78952C21.1672 3.60561 21.6211 4.69085 21.6211 5.84617C21.6211 7.00148 21.1672 8.08621 20.3433 8.90281C18.3824 10.8468 15.9168 12.2205 13.5331 13.5485C13.4076 13.6185 13.2836 13.6876 13.1591 13.7572ZM21.8123 24.1667C20.3504 24.1667 19.1607 22.988 19.1607 21.5392C19.1607 20.0904 20.3504 18.9117 21.8123 18.9117C23.2741 18.9117 24.4639 20.0904 24.4639 21.5392C24.4639 22.988 23.2741 24.1667 21.8123 24.1667Z" fill="white"/>
</svg>
