<svg width="31" height="28" viewBox="0 0 31 28" fill="none" xmlns="http://www.w3.org/2000/svg">
<path d="M0.958137 25.9642C0.783796 25.9642 0.616595 26.0334 0.493316 26.1567C0.370038 26.28 0.300781 26.4472 0.300781 26.6215C0.300781 26.7958 0.370038 26.9631 0.493316 27.0863C0.616595 27.2096 0.783796 27.2789 0.958137 27.2789H30.3419C30.5163 27.2789 30.6835 27.2096 30.8068 27.0863C30.93 26.9631 30.9993 26.7958 30.9993 26.6215C30.9993 26.4472 30.93 26.28 30.8068 26.1567C30.6835 26.0334 30.5163 25.9642 30.3419 25.9642H28.1398V23.3347H29.4545C29.6289 23.3347 29.7961 23.2655 29.9193 23.1422C30.0426 23.0189 30.1119 22.8517 30.1119 22.6774C30.1119 22.503 30.0426 22.3358 29.9193 22.2126C29.7961 22.0893 29.6289 22.02 29.4545 22.02H28.7972V18.4046C28.7972 17.7072 28.5201 17.0384 28.027 16.5453C27.5339 16.0522 26.8651 15.7751 26.1677 15.7751H15.9787C15.2814 15.7751 14.6126 16.0522 14.1194 16.5453C13.6263 17.0384 13.3493 17.7072 13.3493 18.4046V22.02H12.6919C12.5176 22.02 12.3504 22.0893 12.2271 22.2126C12.1038 22.3358 12.0346 22.503 12.0346 22.6774C12.0346 22.8517 12.1038 23.0189 12.2271 23.1422C12.3504 23.2655 12.5176 23.3347 12.6919 23.3347H14.0067V25.9642H7.10442V20.2123C10.0297 19.6535 12.1989 15.5779 12.1989 10.4834C12.1989 5.38891 9.66811 0.72168 6.44706 0.72168C3.22602 0.72168 0.695195 5.02736 0.695195 10.4834C0.695195 15.9395 2.86447 19.6535 5.7897 20.2123V25.9642H0.958137ZM2.00991 10.4834C2.00991 5.91479 4.04771 2.03639 6.44706 2.03639C8.84641 2.03639 10.8842 5.91479 10.8842 10.4834C10.8842 15.052 9.20796 18.2073 7.10442 18.8318V13.0142C7.10442 12.8399 7.03516 12.6727 6.91188 12.5494C6.7886 12.4261 6.6214 12.3569 6.44706 12.3569C6.27272 12.3569 6.10552 12.4261 5.98224 12.5494C5.85896 12.6727 5.7897 12.8399 5.7897 13.0142V18.8318C3.68617 18.2073 2.00991 14.6576 2.00991 10.4834ZM14.664 18.4046C14.664 18.0559 14.8025 17.7215 15.0491 17.4749C15.2956 17.2284 15.63 17.0898 15.9787 17.0898H26.1677C26.5164 17.0898 26.8508 17.2284 27.0974 17.4749C27.3439 17.7215 27.4825 18.0559 27.4825 18.4046V22.02H14.664V18.4046ZM15.3214 23.3347H26.8251V25.9642H15.3214V23.3347Z" fill="white"/>
</svg>
