<svg width="31" height="31" viewBox="0 0 31 31" fill="none" xmlns="http://www.w3.org/2000/svg">
<path d="M30.8486 2.73519L28.2653 0.151968C28.0634 -0.0496178 27.7364 -0.0496178 27.5345 0.151968L25.0582 2.62838L23.2236 0.793138C22.7423 0.310628 22.0959 0.0280913 21.4148 0.00222957C20.7337 -0.0236322 20.068 0.209348 19.5516 0.654264C19.0352 1.09918 18.7063 1.7231 18.6308 2.40046L17.0236 0.793079C16.3392 0.108983 15.3419 -0.158078 14.4071 0.0923914C13.4725 0.343103 12.7425 1.07331 12.4922 2.00787C12.2417 2.94267 12.5093 3.94 13.1936 4.6241L18.1277 9.5585L9.55819 18.1277L4.62409 13.1933V13.1931C3.93973 12.509 2.94242 12.2419 2.00776 12.4926C1.07292 12.7431 0.342922 13.4733 0.0926203 14.4079C-0.15764 15.3427 0.109688 16.3401 0.794043 17.0242L2.40078 18.6308C1.72333 18.706 1.0992 19.0349 0.654278 19.5513C0.209115 20.0678 -0.0238207 20.7334 0.00198293 21.4147C0.0277866 22.0961 0.310599 22.7421 0.793571 23.2235L2.6277 25.058L0.151195 27.5342C-0.0503983 27.7361 -0.0503983 28.0631 0.151195 28.2649L2.73451 30.8481C2.93634 31.0497 3.2634 31.0497 3.46522 30.8481L5.94155 28.3717L7.77615 30.2067V30.207C8.25752 30.6895 8.90383 30.972 9.58494 30.9979C10.2661 31.0237 10.9318 30.7908 11.4482 30.3458C11.9646 29.9009 12.2935 29.277 12.369 28.5996L13.9764 30.207H13.9762C14.4843 30.7149 15.1732 31.0002 15.8915 31C16.61 31 17.299 30.7145 17.8069 30.2066C18.3148 29.6984 18.5999 29.0095 18.5999 28.2911C18.5999 27.5728 18.3144 26.8839 17.8063 26.376L12.8722 21.4416L21.4417 12.8724L26.3758 17.8068V17.807C26.8839 18.3149 27.5729 18.6 28.2912 18.6C29.0097 18.6 29.6984 18.3145 30.2063 17.8064C30.7142 17.2985 30.9996 16.6095 30.9996 15.8911C30.9993 15.1728 30.714 14.4839 30.2059 13.976L28.5992 12.3693C29.2766 12.2941 29.9008 11.9652 30.3457 11.4488C30.7908 10.9324 31.0238 10.2667 30.998 9.58541C30.9722 8.90409 30.6894 8.25808 30.2064 7.77669L28.3723 5.94216L30.8486 3.46593H30.8488C31.0504 3.26411 31.0504 2.93706 30.8488 2.73524L30.8486 2.73519ZM3.0999 29.7524L1.24705 27.8997L3.35823 25.7886L5.21107 27.6413L3.0999 29.7524ZM9.69075 29.9662C9.24629 29.9674 8.81981 29.7907 8.50591 29.4759L1.52357 22.4926C1.10055 22.0694 0.935408 21.4524 1.09041 20.8744C1.24564 20.2964 1.69724 19.8451 2.27549 19.6903C2.85351 19.5355 3.47025 19.7011 3.8935 20.1244L10.8758 27.1076C11.19 27.4218 11.3664 27.848 11.3662 28.2922C11.3662 28.7364 11.1895 29.1624 10.8754 29.4763C10.561 29.7905 10.135 29.9669 9.69077 29.9667L9.69075 29.9662ZM17.5665 28.2913C17.5665 28.7355 17.3898 29.1618 17.0756 29.4759C16.7615 29.79 16.3353 29.9667 15.891 29.9667C15.4466 29.9667 15.0206 29.79 14.7062 29.4759L4.62388 19.3927L1.5239 16.2929C1.20975 15.9787 1.0333 15.5528 1.0333 15.1083C1.0333 14.6641 1.20998 14.2381 1.52413 13.9239C1.83828 13.6098 2.26452 13.4334 2.70873 13.4334C3.15297 13.4334 3.57921 13.61 3.89334 13.9242L17.0756 27.1072C17.3909 27.4204 17.5674 27.8468 17.566 28.2913L17.5665 28.2913ZM12.1415 20.7111L10.2887 18.8583L18.8582 10.2891L20.711 12.1419L12.1415 20.7111ZM29.9667 15.8918C29.9665 16.336 29.7898 16.762 29.4756 17.0762C29.1615 17.3903 28.7352 17.5668 28.291 17.5665C27.8468 17.5665 27.4206 17.3901 27.1064 17.0759L13.9241 3.89296C13.509 3.46811 13.3498 2.85506 13.5057 2.28191C13.6619 1.70876 14.1098 1.26108 14.683 1.10514C15.2564 0.94946 15.8693 1.10883 16.2941 1.52423L26.3764 11.6074L29.4764 14.7072C29.792 15.0204 29.9686 15.4471 29.9672 15.8918L29.9667 15.8918ZM29.9667 9.69206C29.9665 10.1363 29.7898 10.5623 29.4756 10.8764C29.1615 11.1906 28.7352 11.367 28.291 11.3668C27.8468 11.3668 27.4206 11.1904 27.1064 10.8762L20.1241 3.89296C19.7089 3.46811 19.5498 2.85506 19.7057 2.28191C19.8618 1.70876 20.3097 1.26108 20.883 1.10514C21.4564 0.94946 22.0692 1.10883 22.4941 1.52423L29.4764 8.50749C29.7917 8.8207 29.9682 9.24714 29.9668 9.69164L29.9667 9.69206ZM27.6417 5.21178L25.7889 3.35901L27.9 1.24791L29.7529 3.10068L27.6417 5.21178Z" fill="white"/>
</svg>
