<svg width="20" height="32" viewBox="0 0 20 32" fill="none" xmlns="http://www.w3.org/2000/svg">
<path d="M19.836 11.0005L18.1092 1.14852C18.0681 0.948272 17.9036 0.828125 17.6981 0.828125H2.73285C2.52728 0.828125 2.36283 0.98832 2.32172 1.14852L0.59496 11.0005C0.183828 13.4035 0.636074 15.9265 2.03393 18.0091C3.71957 20.5322 6.47416 22.054 9.47543 22.2943V28.9722C9.47543 29.4528 9.10541 29.8533 8.65316 29.8934L3.8018 30.5342C3.63734 30.5342 3.55512 30.6943 3.55512 30.8145V31.0948C3.55512 31.255 3.67846 31.3752 3.84291 31.3752H16.6291C16.7936 31.3752 16.9169 31.255 16.9169 31.0948V30.8145C16.9169 30.6543 16.7936 30.5342 16.6702 30.5342L11.86 29.8934C11.3666 29.8133 11.0377 29.4528 11.0377 28.9722V22.2943C14.039 22.054 16.7525 20.5322 18.4381 18.0091C19.7949 15.9666 20.2882 13.4435 19.836 11.0005ZM3.39066 2.39003C3.43178 2.18979 3.59623 2.06964 3.8018 2.06964H16.6291C16.8347 2.06964 16.9992 2.22984 17.0403 2.39003L18.4381 10.3598C17.2869 9.23839 15.6835 8.27721 13.5868 8.03692C13.299 7.99687 13.0523 7.99687 12.7645 7.99687C10.8322 7.99687 9.43431 8.87795 8.20092 9.67892C6.39193 10.8403 4.91185 11.7615 2.03393 10.1996L3.39066 2.39003ZM17.3281 17.3283C15.7658 19.6911 13.0934 21.0928 10.2155 21.0928C7.33754 21.0928 4.66517 19.6911 3.10287 17.3283C1.9517 15.6062 1.49945 13.4836 1.82836 11.4411C5.15853 13.043 7.13197 11.8015 8.89984 10.6801C10.2566 9.83912 11.5311 9.03814 13.4223 9.23839C16.0124 9.55878 17.6981 11.2008 18.7259 12.6025C18.767 14.2845 18.2737 15.9265 17.3281 17.3283Z" fill="white"/>
</svg>
