<svg width="44" height="44" viewBox="0 0 44 44" fill="none"
  xmlns="http://www.w3.org/2000/svg">
  <path fill-rule="evenodd" clip-rule="evenodd" d="M22 10C15.382 10 10 15.382 10 22C10 28.618 15.382 34 22 34C28.618 34 34 28.618 34 22C34 15.382 28.618 10 22 10ZM22 32.8C16.045 32.8 11.2 27.955 11.2 22C11.2 16.045 16.045 11.2 22 11.2C27.955 11.2 32.8 16.045 32.8 22C32.8 27.955 27.955 32.8 22 32.8ZM22.0001 21.7C24.3521 21.7 26.2631 19.786 26.2631 17.437C26.2631 15.088 24.3491 13.174 22.0001 13.174C19.6511 13.174 17.7371 15.088 17.7371 17.437C17.7371 19.786 19.6511 21.7 22.0001 21.7ZM22.0001 14.371C23.6891 14.371 25.0631 15.745 25.0631 17.434C25.0631 19.123 23.6891 20.497 22.0001 20.497C20.3111 20.497 18.9371 19.123 18.9371 17.434C18.9371 15.745 20.3111 14.371 22.0001 14.371ZM19.276 22.513H24.724C27.157 22.513 29.134 24.49 29.134 26.923C29.134 27.913 28.687 28.837 27.91 29.455C26.215 30.802 24.172 31.513 22 31.513C19.828 31.513 17.785 30.802 16.09 29.455C15.313 28.837 14.866 27.913 14.866 26.923C14.866 24.49 16.843 22.513 19.276 22.513ZM22 30.313C23.896 30.313 25.681 29.692 27.163 28.516C27.652 28.126 27.934 27.544 27.934 26.923C27.934 25.153 26.494 23.713 24.724 23.713H19.276C17.506 23.713 16.066 25.153 16.066 26.923C16.066 27.547 16.348 28.126 16.837 28.516C18.319 29.692 20.104 30.313 22 30.313Z" fill="#1D1C1D"/>
</svg>
