<svg width="44" height="44" viewBox="0 0 44 44" fill="none"
  xmlns="http://www.w3.org/2000/svg">
  <path d="M19.3639 21.4382L19.3637 21.4384V21.4693C19.3637 21.9712 18.9352 22.3873 18.3988 22.3873H11.6008C11.0646 22.3873 10.6359 21.9712 10.6359 21.4693L10.6361 11.5302V11.5302C10.6361 11.0284 11.0648 10.6124 11.601 10.6124H18.399C18.9352 10.6124 19.3639 11.0284 19.3639 11.5304V21.4382ZM18.399 9.9H11.601C10.6673 9.9 9.9 10.6272 9.9 11.5304V21.4696C9.9 22.3728 10.6673 23.1 11.601 23.1H18.399C19.3327 23.1 20.1 22.3728 20.1 21.4696V11.5304C20.1 10.6272 19.3327 9.9 18.399 9.9Z" fill="#1D1C1D" stroke="#1D1C1D" stroke-width="0.2"/>
  <path d="M10.6361 27.5244V27.5244C10.6361 27.025 11.0642 26.6103 11.601 26.6103H18.399C18.9356 26.6103 19.3639 27.0249 19.3639 27.5244L19.3637 32.4751C19.3637 32.9745 18.9356 33.3892 18.3988 33.3892H11.6008C11.0642 33.3892 10.6359 32.9747 10.6359 32.4751L10.6361 27.5244ZM18.399 25.9H11.601C10.6677 25.9 9.9 26.6242 9.9 27.5246V32.4754C9.9 33.3758 10.6677 34.1 11.601 34.1H18.399C19.3323 34.1 20.1 33.3758 20.1 32.4754V27.5246C20.1 26.6242 19.3323 25.9 18.399 25.9Z" fill="#1D1C1D" stroke="#1D1C1D" stroke-width="0.2"/>
  <path d="M32.399 20.9H25.601C24.6673 20.9 23.9 21.6272 23.9 22.5304V32.4696C23.9 33.3728 24.6673 34.1 25.601 34.1H32.399C33.3327 34.1 34.1 33.3728 34.1 32.4696V22.5304C34.1 21.6272 33.3327 20.9 32.399 20.9ZM33.3639 32.4693C33.3639 32.9712 32.9354 33.3873 32.399 33.3873H25.601C25.0648 33.3873 24.6361 32.9713 24.6361 32.4693V22.5302C24.6361 22.0283 25.0646 21.6122 25.601 21.6122H32.399C32.9352 21.6122 33.3639 22.0284 33.3639 22.5302V32.4693Z" fill="#1D1C1D" stroke="#1D1C1D" stroke-width="0.2"/>
  <path d="M32.399 9.9H25.601C24.6677 9.9 23.9 10.6242 23.9 11.5246V16.4754C23.9 17.3758 24.6677 18.1 25.601 18.1H32.399C33.3323 18.1 34.1 17.3758 34.1 16.4754V11.5246C34.1 10.6242 33.3323 9.9 32.399 9.9ZM33.3639 16.4751C33.3639 16.9745 32.9358 17.3892 32.399 17.3892H25.601C25.0644 17.3892 24.6361 16.9747 24.6361 16.4751V11.5245C24.6361 11.5244 24.6361 11.5244 24.6361 11.5244C24.6363 11.025 25.0644 10.6105 25.601 10.6105H32.399C32.9356 10.6105 33.3639 11.0251 33.3639 11.5246V16.4751Z" fill="#1D1C1D" stroke="#1D1C1D" stroke-width="0.2"/>
</svg>
