<svg width="47" height="47" viewBox="0 0 47 47" fill="none"
  xmlns="http://www.w3.org/2000/svg">
  <path d="M19.899 11.4H13.101C12.1673 11.4 11.4 12.1272 11.4 13.0304V22.9696C11.4 23.8728 12.1673 24.6 13.101 24.6H19.899C20.8327 24.6 21.6 23.8728 21.6 22.9696V13.0304C21.6 12.1272 20.8327 11.4 19.899 11.4Z" fill="#1D1C1D" stroke="#1D1C1D" stroke-width="0.2"/>
  <path d="M19.899 27.4H13.101C12.1677 27.4 11.4 28.1242 11.4 29.0246V33.9754C11.4 34.8758 12.1677 35.6 13.101 35.6H19.899C20.8323 35.6 21.6 34.8758 21.6 33.9754V29.0246C21.6 28.1242 20.8323 27.4 19.899 27.4Z" fill="#1D1C1D" stroke="#1D1C1D" stroke-width="0.2"/>
  <path d="M33.899 22.4H27.101C26.1673 22.4 25.4 23.1272 25.4 24.0304V33.9696C25.4 34.8728 26.1673 35.6 27.101 35.6H33.899C34.8327 35.6 35.6 34.8728 35.6 33.9696V24.0304C35.6 23.1272 34.8327 22.4 33.899 22.4Z" fill="#1D1C1D" stroke="#1D1C1D" stroke-width="0.2"/>
  <path d="M33.899 11.4H27.101C26.1677 11.4 25.4 12.1242 25.4 13.0246V17.9754C25.4 18.8758 26.1677 19.6 27.101 19.6H33.899C34.8323 19.6 35.6 18.8758 35.6 17.9754V13.0246C35.6 12.1242 34.8323 11.4 33.899 11.4Z" fill="#1D1C1D" stroke="#1D1C1D" stroke-width="0.2"/>
</svg>
