<svg width="47" height="47" viewBox="0 0 47 47" fill="none"
  xmlns="http://www.w3.org/2000/svg">
  <path d="M32.5 20.5L32.5 18.5C32.5 17.3954 31.6046 16.5 30.5 16.5L16.5 16.5C15.3954 16.5 14.5 17.3954 14.5 18.5L14.5 20.5" stroke="#1D1C1D"/>
  <path d="M29.5 16.5L29.5 14.5C29.5 13.9477 29.0523 13.5 28.5 13.5L18.5 13.5C17.9477 13.5 17.5 13.9477 17.5 14.5L17.5 16.5" stroke="#1D1C1D"/>
  <path d="M27.5 13.5L27.5 12.5C27.5 11.9477 27.0523 11.5 26.5 11.5L20.5 11.5C19.9477 11.5 19.5 11.9477 19.5 12.5L19.5 13.5" stroke="#1D1C1D"/>
  <mask id="path-4-inside-1_705_4303" fill="white">
    <path fill-rule="evenodd" clip-rule="evenodd" d="M36 33C36 34.6569 34.6569 36 33 36L14 36C12.3431 36 11 34.6569 11 33L11 23C11 21.3431 12.3431 20 14 20L33 20C34.6569 20 36 21.3431 36 23L36 33ZM30 30.5C30 30.7761 29.7761 31 29.5 31L17.5 31C17.2239 31 17 30.7761 17 30.5C17 30.2239 17.2239 30 17.5 30L29.5 30C29.7761 30 30 30.2239 30 30.5ZM29.5 26C29.7761 26 30 25.7761 30 25.5C30 25.2239 29.7761 25 29.5 25L17.5 25C17.2239 25 17 25.2239 17 25.5C17 25.7761 17.2239 26 17.5 26L29.5 26Z"/>
  </mask>
  <path fill-rule="evenodd" clip-rule="evenodd" d="M36 33C36 34.6569 34.6569 36 33 36L14 36C12.3431 36 11 34.6569 11 33L11 23C11 21.3431 12.3431 20 14 20L33 20C34.6569 20 36 21.3431 36 23L36 33ZM30 30.5C30 30.7761 29.7761 31 29.5 31L17.5 31C17.2239 31 17 30.7761 17 30.5C17 30.2239 17.2239 30 17.5 30L29.5 30C29.7761 30 30 30.2239 30 30.5ZM29.5 26C29.7761 26 30 25.7761 30 25.5C30 25.2239 29.7761 25 29.5 25L17.5 25C17.2239 25 17 25.2239 17 25.5C17 25.7761 17.2239 26 17.5 26L29.5 26Z" fill="#1D1C1D"/>
  <path d="M36 33L37 33L36 33ZM11 33L12 33L11 33ZM11 23L10 23L11 23ZM36 23L35 23L36 23ZM29.5 31L29.5 30L29.5 31ZM17.5 31L17.5 32L17.5 31ZM17.5 30L17.5 31L17.5 30ZM29.5 30L29.5 29L29.5 30ZM29.5 26L29.5 25L29.5 26ZM29.5 25L29.5 24L29.5 25ZM17.5 25L17.5 26L17.5 25ZM17.5 26L17.5 27L17.5 26ZM33 37C35.2091 37 37 35.2091 37 33L35 33C35 34.1046 34.1046 35 33 35L33 37ZM14 37L33 37L33 35L14 35L14 37ZM10 33C10 35.2091 11.7909 37 14 37L14 35C12.8954 35 12 34.1046 12 33L10 33ZM10 23L10 33L12 33L12 23L10 23ZM14 19C11.7909 19 10 20.7909 10 23L12 23C12 21.8954 12.8954 21 14 21L14 19ZM33 19L14 19L14 21L33 21L33 19ZM37 23C37 20.7909 35.2091 19 33 19L33 21C34.1046 21 35 21.8954 35 23L37 23ZM37 33L37 23L35 23L35 33L37 33ZM29.5 32C30.3284 32 31 31.3284 31 30.5L29 30.5C29 30.2239 29.2239 30 29.5 30L29.5 32ZM17.5 32L29.5 32L29.5 30L17.5 30L17.5 32ZM16 30.5C16 31.3284 16.6716 32 17.5 32L17.5 30C17.7761 30 18 30.2239 18 30.5L16 30.5ZM17.5 29C16.6716 29 16 29.6716 16 30.5L18 30.5C18 30.7761 17.7761 31 17.5 31L17.5 29ZM29.5 29L17.5 29L17.5 31L29.5 31L29.5 29ZM31 30.5C31 29.6716 30.3284 29 29.5 29L29.5 31C29.2239 31 29 30.7761 29 30.5L31 30.5ZM29 25.5C29 25.2239 29.2239 25 29.5 25L29.5 27C30.3284 27 31 26.3284 31 25.5L29 25.5ZM29.5 26C29.2239 26 29 25.7761 29 25.5L31 25.5C31 24.6716 30.3284 24 29.5 24L29.5 26ZM17.5 26L29.5 26L29.5 24L17.5 24L17.5 26ZM18 25.5C18 25.7761 17.7761 26 17.5 26L17.5 24C16.6716 24 16 24.6716 16 25.5L18 25.5ZM17.5 25C17.7761 25 18 25.2239 18 25.5L16 25.5C16 26.3284 16.6716 27 17.5 27L17.5 25ZM29.5 25L17.5 25L17.5 27L29.5 27L29.5 25Z" fill="#1D1C1D" mask="url(#path-4-inside-1_705_4303)"/>
</svg>
