<?xml version="1.0" standalone="no"?>
<!DOCTYPE svg PUBLIC "-//W3C//DTD SVG 20010904//EN"
 "http://www.w3.org/TR/2001/REC-SVG-20010904/DTD/svg10.dtd">
<svg version="1.0" xmlns="http://www.w3.org/2000/svg"
 width="186.000000pt" height="48.000000pt" viewBox="0 0 186.000000 48.000000"
 preserveAspectRatio="xMidYMid meet">

<g transform="translate(0.000000,48.000000) scale(0.100000,-0.100000)"
fill="#000000" stroke="none">
<path d="M0 240 l0 -240 930 0 930 0 0 240 0 240 -930 0 -930 0 0 -240z m90
65 l0 -145 -40 0 -40 0 0 145 0 145 40 0 40 0 0 -145z m118 129 c8 -14 11 -13
38 2 39 22 92 13 125 -22 22 -23 24 -36 27 -135 l4 -109 -41 0 -41 0 0 83 c0
92 -15 127 -55 127 -44 0 -55 -23 -55 -121 l0 -89 -45 0 -45 0 0 133 c0 74 3
137 7 140 13 13 72 7 81 -9z m318 -89 c30 -95 32 -99 43 -72 6 16 11 31 11 34
0 3 9 36 21 74 l21 69 39 0 c26 0 39 -4 39 -14 0 -7 -20 -69 -44 -137 l-44
-124 -53 -3 -54 -3 -48 135 c-26 74 -47 137 -47 141 0 3 19 5 42 3 l42 -3 32
-100z m379 91 c41 -18 75 -69 75 -113 l0 -33 -95 0 c-89 0 -95 -1 -95 -20 0
-12 10 -25 26 -32 21 -10 31 -9 56 5 31 18 98 23 98 8 0 -22 -54 -71 -89 -82
-135 -40 -236 122 -144 232 43 50 101 62 168 35z m253 3 c29 -10 62 -46 62
-69 0 -16 -70 -12 -86 5 -17 17 -33 19 -53 6 -25 -16 -5 -36 49 -50 65 -17 90
-40 90 -84 0 -82 -126 -113 -200 -50 -17 14 -30 33 -30 44 0 27 52 25 91 -3
23 -17 34 -20 47 -12 32 21 18 38 -46 56 -75 23 -100 51 -86 101 16 54 91 81
162 56z m172 -8 c0 -19 1 -19 38 1 49 27 98 19 137 -22 25 -26 30 -40 33 -93
2 -50 -1 -69 -18 -95 -35 -57 -126 -78 -161 -36 -23 28 -29 13 -29 -71 l0 -85
-40 0 -40 0 0 210 0 210 40 0 c33 0 40 -3 40 -19z m324 -68 c17 -46 33 -83 36
-83 3 0 19 37 36 83 l31 82 41 3 c23 2 42 -1 42 -6 0 -5 -38 -99 -84 -208
l-85 -199 -40 -3 c-24 -2 -41 1 -41 7 0 6 11 36 25 67 14 31 25 62 25 70 0 7
-22 66 -50 131 -27 65 -50 124 -50 131 0 9 13 12 42 10 l43 -3 29 -82z"/>
<path d="M802 368 c-26 -26 -13 -38 38 -38 34 0 50 4 50 13 0 21 -22 37 -50
37 -14 0 -31 -5 -38 -12z"/>
<path d="M1359 361 c-16 -13 -23 -29 -23 -54 0 -46 19 -67 60 -67 62 0 88 80
38 119 -33 26 -45 26 -75 2z"/>
</g>
</svg>
