<svg width="44" height="44" viewBox="0 0 44 44" fill="none"
  xmlns="http://www.w3.org/2000/svg">
  <path fill-rule="evenodd" clip-rule="evenodd" d="M10 22C10 15.3726 15.3726 10 22 10C28.6274 10 34 15.3726 34 22C34 28.6274 28.6274 34 22 34C15.3726 34 10 28.6274 10 22ZM12.7938 20.9745L22.8619 20.9745C23.2394 20.9745 23.3296 20.7572 23.0599 20.4892L21.1896 18.6266C20.22 17.6597 21.6748 16.2091 22.6444 17.1759L26.8347 21.2639C27.2444 21.6617 27.2451 22.3036 26.8395 22.7008L22.6444 26.824C21.6748 27.7909 20.22 26.3406 21.1896 25.3734L23.0599 23.511C23.3296 23.2431 23.241 23.0258 22.8619 23.0258L12.7938 23.0258C12.2275 23.0258 11.833 23.4808 11.917 24.042C11.917 24.042 11.8524 23.7255 11.922 24.0666C12.8786 28.7568 17.0272 32.2857 22 32.2857C27.6806 32.2857 32.2857 27.6806 32.2857 22C32.2857 16.3194 27.6806 11.7143 22 11.7143C17.0217 11.7143 12.8694 15.2511 11.9188 19.9491C11.8508 20.2852 11.9172 19.957 11.9172 19.957C11.8264 20.5162 12.2255 20.9745 12.7938 20.9745Z" fill="#1D1C1D"/>
</svg>
