<svg width="47" height="48" viewBox="0 0 47 48" fill="none" xmlns="http://www.w3.org/2000/svg">
<path d="M34.2206 17.9917C34.2206 21.0193 31.7566 23.4833 28.7289 23.4833C25.6926 23.4833 23.229 21.0188 23.229 17.9917C23.229 14.9645 25.6926 12.5 28.7289 12.5C31.7566 12.5 34.2206 14.9641 34.2206 17.9917Z" stroke="#1D1C1D"/>
<path d="M20.3567 19.3898C20.3567 21.7609 18.4345 23.6831 16.0634 23.6831C13.6922 23.6831 11.77 21.7609 11.77 19.3898C11.77 17.0186 13.6922 15.0964 16.0634 15.0964C18.4345 15.0964 20.3567 17.0186 20.3567 19.3898Z" stroke="#1D1C1D"/>
<path d="M9.66333 24.9269C9.92482 24.6195 10.2394 24.3571 10.5936 24.1458C10.7088 24.0771 10.9311 24.0847 11.1425 24.297C12.4009 25.5603 14.1406 26.3472 16.0634 26.3472C16.2295 26.3472 16.4221 26.438 16.5705 26.612C16.7187 26.7859 16.7744 26.9856 16.7464 27.1442C16.7415 27.1722 16.7367 27.2003 16.7321 27.2284L16.2908 29.9248C16.1524 30.7699 16.1849 31.6063 16.36 32.3986C16.3885 32.5276 16.3585 32.6656 16.2901 32.7663C16.225 32.8623 16.1434 32.9026 16.0601 32.9026C14.3497 32.9026 12.6415 32.7477 10.9515 32.4386C9.31024 32.1381 8.18656 30.5363 8.45859 28.8672L8.79663 26.7975M9.66333 24.9269C9.28342 25.5 9 26.1714 8.79663 26.7975M9.66333 24.9269L9.19957 25.7643L8.79663 26.7975" stroke="#1D1C1D"/>
<path d="M36.9872 25.2737L36.9848 25.2709C36.4223 24.6034 35.6689 24.0969 34.804 23.8086M36.9872 25.2737C37.5669 25.9512 37.945 26.7815 38.0887 27.6592L38.5297 30.3553C38.8774 32.4784 37.4548 34.5094 35.3631 34.8924C33.1618 35.2948 30.9451 35.5 28.7291 35.5C26.5048 35.5 24.288 35.2948 22.0868 34.8923C19.9951 34.5093 18.5725 32.4785 18.9202 30.3554L19.3613 27.6592C19.6561 25.8606 20.9093 24.3822 22.637 23.8088L22.6462 23.8058C22.7968 23.7563 23.0098 23.8005 23.1899 23.9675C24.6445 25.3162 26.5891 26.148 28.729 26.148M36.9872 25.2737C36.363 24.533 35.7527 24.1248 34.804 23.8086M34.804 23.8086C34.6543 23.7588 34.4401 23.803 34.2598 23.9702M34.804 23.8086C34.4414 23.688 34.54 23.7103 34.2598 23.9702M28.729 26.148C30.8656 26.148 32.807 25.3173 34.2598 23.9702M28.729 26.148C30.7332 26.148 32.8947 25.2359 34.2598 23.9702" stroke="#1D1C1D"/>
</svg>
