<svg width="47" height="48" viewBox="0 0 47 48" fill="none" xmlns="http://www.w3.org/2000/svg">
<path d="M34.2206 17.9917C34.2206 21.0193 31.7566 23.4833 28.7289 23.4833C25.6926 23.4833 23.229 21.0188 23.229 17.9917C23.229 14.9645 25.6926 12.5 28.7289 12.5C31.7566 12.5 34.2206 14.9641 34.2206 17.9917Z" fill="#1D1C1D" stroke="#1D1C1D"/>
<path d="M20.3567 19.3898C20.3567 21.7609 18.4345 23.6831 16.0634 23.6831C13.6922 23.6831 11.77 21.7609 11.77 19.3898C11.77 17.0186 13.6922 15.0964 16.0634 15.0964C18.4345 15.0964 20.3567 17.0186 20.3567 19.3898Z" fill="#1D1C1D" stroke="#1D1C1D"/>
<path d="M16.7321 27.2284C16.7367 27.2003 16.7415 27.1722 16.7464 27.1442C16.7744 26.9856 16.7187 26.7859 16.5705 26.612C16.4221 26.438 16.2295 26.3472 16.0634 26.3472C14.1406 26.3472 12.4009 25.5603 11.1425 24.297C10.9311 24.0847 10.7088 24.0771 10.5936 24.1458C10.2394 24.3571 9.76149 24.6926 9.5 25L16.7321 27.2284ZM16.7321 27.2284L16.2908 29.9248C16.1524 30.7699 16.1849 31.6063 16.36 32.3986C16.3885 32.5276 16.3585 32.6656 16.2901 32.7663C16.225 32.8623 16.1434 32.9026 16.0601 32.9026C14.3497 32.9026 12.6415 32.7477 10.9515 32.4386C9.31024 32.1381 8.18656 30.5363 8.45859 28.8672L8.79663 26.7975M16.7321 27.2284L9.5 25L8.79663 26.7975M8.79663 26.7975C8.90952 26.1081 9.04532 25.5346 9.5 25L8.79663 26.7975Z" fill="#1D1C1D"/>
<path d="M16.7321 27.2284C16.7367 27.2003 16.7415 27.1722 16.7464 27.1442C16.7744 26.9856 16.7187 26.7859 16.5705 26.612C16.4221 26.438 16.2295 26.3472 16.0634 26.3472C14.1406 26.3472 12.4009 25.5603 11.1425 24.297C10.9311 24.0847 10.7088 24.0771 10.5936 24.1458C10.2394 24.3571 9.76149 24.6926 9.5 25M16.7321 27.2284L9.5 25M16.7321 27.2284L16.2908 29.9248C16.1524 30.7699 16.1849 31.6063 16.36 32.3986C16.3885 32.5276 16.3585 32.6656 16.2901 32.7663C16.225 32.8623 16.1434 32.9026 16.0601 32.9026C14.3497 32.9026 12.6415 32.7477 10.9515 32.4386C9.31024 32.1381 8.18656 30.5363 8.45859 28.8672L8.79663 26.7975M9.5 25C9.04532 25.5346 8.90952 26.1081 8.79663 26.7975M9.5 25L8.79663 26.7975" stroke="#1D1C1D"/>
<path d="M36.9871 25.2737L36.9847 25.2709C36.4222 24.6034 35.6688 24.0969 34.8039 23.8086M36.9871 25.2737L22.5 34L22.6369 23.8088L22.6461 23.8058C22.7967 23.7563 23.0097 23.8005 23.1898 23.9675C24.6444 25.3162 26.589 26.148 28.7289 26.148C30.8655 26.148 32.8069 25.3173 34.2597 23.9702C34.44 23.803 34.6542 23.7588 34.8039 23.8086M36.9871 25.2737C37.5668 25.9512 37.9449 26.7815 38.0886 27.6592L38.5296 30.3553C38.8773 32.4784 37.4547 34.5094 35.363 34.8924C33.1617 35.2948 30.945 35.5 28.729 35.5C26.5047 35.5 24.2879 35.2948 22.0867 34.8923M36.9871 25.2737L22.0867 34.8923ZM34.8039 23.8086C35.7526 24.1248 36.3629 24.533 36.9871 25.2737L18.92 30.3554L19.3612 27.6592C19.6858 25.6786 20.7312 24.4412 22.6369 23.8088L22.6461 23.8058C23.0088 23.6867 23.22 23.9814 23.5 24.241C24.8668 25.5083 26.7213 25.648 28.7289 25.648C30.7331 25.648 32.5877 25.5067 33.9528 24.241C34.2927 24.6076 34.4413 23.688 34.8039 23.8086ZM22.0867 34.8923C19.995 34.5093 18.5723 32.4785 18.92 30.3554L19.3612 27.6592C19.656 25.8606 20.9092 24.3822 22.6369 23.8088L22.0867 34.8923Z" fill="#1D1C1D"/>
<path d="M36.9871 25.2737L36.9847 25.2709C36.4222 24.6034 35.6688 24.0969 34.8039 23.8086M36.9871 25.2737C37.5668 25.9512 37.9449 26.7815 38.0886 27.6592L38.5296 30.3553C38.8773 32.4784 37.4547 34.5094 35.363 34.8924C33.1617 35.2948 30.945 35.5 28.729 35.5C26.5047 35.5 24.2879 35.2948 22.0867 34.8923M36.9871 25.2737L22.0867 34.8923M36.9871 25.2737C36.3629 24.533 35.7526 24.1248 34.8039 23.8086M36.9871 25.2737L18.92 30.3554M36.9871 25.2737L22.5 34L22.6369 23.8088M34.8039 23.8086C34.6542 23.7588 34.44 23.803 34.2597 23.9702C32.8069 25.3173 30.8655 26.148 28.7289 26.148C26.589 26.148 24.6444 25.3162 23.1898 23.9675C23.0097 23.8005 22.7967 23.7563 22.6461 23.8058M34.8039 23.8086C34.4413 23.688 34.2927 24.6076 33.9528 24.241C32.5877 25.5067 30.7331 25.648 28.7289 25.648C26.7213 25.648 24.8668 25.5083 23.5 24.241C23.22 23.9814 23.0088 23.6867 22.6461 23.8058M22.6369 23.8088L22.6461 23.8058M22.6369 23.8088C20.7312 24.4412 19.6858 25.6786 19.3612 27.6592M22.6369 23.8088C20.9092 24.3822 19.656 25.8606 19.3612 27.6592M22.6369 23.8088L22.0867 34.8923M22.0867 34.8923C19.995 34.5093 18.5723 32.4785 18.92 30.3554M18.92 30.3554L19.3612 27.6592" stroke="#1D1C1D"/>
</svg>
