<svg width="44" height="44" viewBox="0 0 44 44" fill="none"
  xmlns="http://www.w3.org/2000/svg">
  <mask id="path-2-inside-1_3_43" fill="white">
    <path fill-rule="evenodd" clip-rule="evenodd" d="M32 17H23V34H27V29C27 28.4477 27.4477 28 28 28H29C29.5523 28 30 28.4477 30 29V34H32C33.1046 34 34 33.1046 34 32V19C34 17.8954 33.1046 17 32 17Z"/>
  </mask>
  <path d="M23 17V16H22V17H23ZM23 34H22V35H23V34ZM27 34V35H28V34H27ZM30 34H29V35H30V34ZM23 18H32V16H23V18ZM24 34V17H22V34H24ZM27 33H23V35H27V33ZM28 34V29H26V34H28ZM28 29V27C26.8954 27 26 27.8954 26 29H28ZM28 29H29V27H28V29ZM29 29H31C31 27.8954 30.1046 27 29 27V29ZM29 29V34H31V29H29ZM32 33H30V35H32V33ZM33 32C33 32.5523 32.5523 33 32 33V35C33.6569 35 35 33.6569 35 32H33ZM33 19V32H35V19H33ZM32 18C32.5523 18 33 18.4477 33 19H35C35 17.3431 33.6569 16 32 16V18Z" fill="#1D1C1D" mask="url(#path-2-inside-1_3_43)"/>
  <mask id="path-4-inside-2_3_43" fill="white">
    <path fill-rule="evenodd" clip-rule="evenodd" d="M12 10C10.8954 10 10 10.8954 10 12V32C10 33.1046 10.8954 34 12 34H15V26C15 25.4477 15.4477 25 16 25H18C18.5523 25 19 25.4477 19 26V34H24V12C24 10.8954 23.1046 10 22 10H12Z"/>
  </mask>
  <path d="M15 34V35H16V34H15ZM19 34H18V35H19V34ZM24 34V35H25V34H24ZM11 12C11 11.4477 11.4477 11 12 11V9C10.3431 9 9 10.3431 9 12H11ZM11 32V12H9V32H11ZM12 33C11.4477 33 11 32.5523 11 32H9C9 33.6569 10.3431 35 12 35V33ZM15 33H12V35H15V33ZM16 34V26H14V34H16ZM16 26V24C14.8954 24 14 24.8954 14 26H16ZM16 26H18V24H16V26ZM18 26H20C20 24.8954 19.1046 24 18 24V26ZM18 26V34H20V26H18ZM24 33H19V35H24V33ZM23 12V34H25V12H23ZM22 11C22.5523 11 23 11.4477 23 12H25C25 10.3431 23.6569 9 22 9V11ZM12 11H22V9H12V11Z" fill="#1D1C1D" mask="url(#path-4-inside-2_3_43)"/>
</svg>
