<svg width="47" height="47" viewBox="0 0 47 47" fill="none"
  xmlns="http://www.w3.org/2000/svg">
  <mask id="path-2-inside-1_34_36" fill="white">
    <path fill-rule="evenodd" clip-rule="evenodd" d="M33.5 18.5H24.5V35.5H28.5V30.5C28.5 29.9477 28.9477 29.5 29.5 29.5H30.5C31.0523 29.5 31.5 29.9477 31.5 30.5V35.5H33.5C34.6046 35.5 35.5 34.6046 35.5 33.5V20.5C35.5 19.3954 34.6046 18.5 33.5 18.5Z"/>
  </mask>
  <path fill-rule="evenodd" clip-rule="evenodd" d="M33.5 18.5H24.5V35.5H28.5V30.5C28.5 29.9477 28.9477 29.5 29.5 29.5H30.5C31.0523 29.5 31.5 29.9477 31.5 30.5V35.5H33.5C34.6046 35.5 35.5 34.6046 35.5 33.5V20.5C35.5 19.3954 34.6046 18.5 33.5 18.5Z" fill="#1D1C1D"/>
  <path d="M24.5 18.5V17.5H23.5V18.5H24.5ZM24.5 35.5H23.5V36.5H24.5V35.5ZM28.5 35.5V36.5H29.5V35.5H28.5ZM31.5 35.5H30.5V36.5H31.5V35.5ZM24.5 19.5H33.5V17.5H24.5V19.5ZM25.5 35.5V18.5H23.5V35.5H25.5ZM28.5 34.5H24.5V36.5H28.5V34.5ZM29.5 35.5V30.5H27.5V35.5H29.5ZM29.5 30.5V28.5C28.3954 28.5 27.5 29.3954 27.5 30.5H29.5ZM29.5 30.5H30.5V28.5H29.5V30.5ZM30.5 30.5H32.5C32.5 29.3954 31.6046 28.5 30.5 28.5V30.5ZM30.5 30.5V35.5H32.5V30.5H30.5ZM33.5 34.5H31.5V36.5H33.5V34.5ZM34.5 33.5C34.5 34.0523 34.0523 34.5 33.5 34.5V36.5C35.1569 36.5 36.5 35.1569 36.5 33.5H34.5ZM34.5 20.5V33.5H36.5V20.5H34.5ZM33.5 19.5C34.0523 19.5 34.5 19.9477 34.5 20.5H36.5C36.5 18.8431 35.1569 17.5 33.5 17.5V19.5Z" fill="#1D1C1D" mask="url(#path-2-inside-1_34_36)"/>
  <mask id="path-4-inside-2_34_36" fill="white">
    <path fill-rule="evenodd" clip-rule="evenodd" d="M13.5 11.5C12.3954 11.5 11.5 12.3954 11.5 13.5V33.5C11.5 34.6046 12.3954 35.5 13.5 35.5H16.5V27.5C16.5 26.9477 16.9477 26.5 17.5 26.5H19.5C20.0523 26.5 20.5 26.9477 20.5 27.5V35.5H25.5V13.5C25.5 12.3954 24.6046 11.5 23.5 11.5H13.5Z"/>
  </mask>
  <path fill-rule="evenodd" clip-rule="evenodd" d="M13.5 11.5C12.3954 11.5 11.5 12.3954 11.5 13.5V33.5C11.5 34.6046 12.3954 35.5 13.5 35.5H16.5V27.5C16.5 26.9477 16.9477 26.5 17.5 26.5H19.5C20.0523 26.5 20.5 26.9477 20.5 27.5V35.5H25.5V13.5C25.5 12.3954 24.6046 11.5 23.5 11.5H13.5Z" fill="#1D1C1D"/>
  <path d="M16.5 35.5V36.5H17.5V35.5H16.5ZM20.5 35.5H19.5V36.5H20.5V35.5ZM25.5 35.5V36.5H26.5V35.5H25.5ZM12.5 13.5C12.5 12.9477 12.9477 12.5 13.5 12.5V10.5C11.8431 10.5 10.5 11.8431 10.5 13.5H12.5ZM12.5 33.5V13.5H10.5V33.5H12.5ZM13.5 34.5C12.9477 34.5 12.5 34.0523 12.5 33.5H10.5C10.5 35.1569 11.8431 36.5 13.5 36.5V34.5ZM16.5 34.5H13.5V36.5H16.5V34.5ZM17.5 35.5V27.5H15.5V35.5H17.5ZM17.5 27.5V25.5C16.3954 25.5 15.5 26.3954 15.5 27.5H17.5ZM17.5 27.5H19.5V25.5H17.5V27.5ZM19.5 27.5H21.5C21.5 26.3954 20.6046 25.5 19.5 25.5V27.5ZM19.5 27.5V35.5H21.5V27.5H19.5ZM25.5 34.5H20.5V36.5H25.5V34.5ZM24.5 13.5V35.5H26.5V13.5H24.5ZM23.5 12.5C24.0523 12.5 24.5 12.9477 24.5 13.5H26.5C26.5 11.8431 25.1569 10.5 23.5 10.5V12.5ZM13.5 12.5H23.5V10.5H13.5V12.5Z" fill="#1D1C1D" mask="url(#path-4-inside-2_34_36)"/>
</svg>
