<svg width="20" height="20" viewBox="0 0 20 20" fill="none" xmlns="http://www.w3.org/2000/svg">
<path fill-rule="evenodd" clip-rule="evenodd" d="M5.18961 0.000249487C4.7577 0.00453508 4.31961 0.0626287 3.88295 0.179768C1.09058 0.927843 -0.568934 3.80253 0.179633 6.5953C0.247728 6.84863 0.509155 6.99958 0.762964 6.93196L4.90246 5.82342L6.91483 13.3323H1.9001C0.85201 13.3323 0.000110532 14.1856 0.000110532 15.237C0.000110532 16.2884 0.85201 17.1417 1.9001 17.1417H2.56343L1.47867 19.3107C1.36106 19.5454 1.45677 19.8326 1.69201 19.9497C1.92677 20.0673 2.21391 19.9716 2.33105 19.7364L3.62819 17.1417H7.9353L8.60673 19.6464C8.67482 19.9002 8.93625 20.0511 9.19006 19.983C9.44387 19.9149 9.59482 19.6535 9.52672 19.3997L8.92101 17.1417H12.5624L13.8596 19.7364C13.9767 19.9716 14.2638 20.0673 14.4986 19.9497C14.7338 19.8326 14.8296 19.5454 14.7119 19.3107L13.6096 17.1074C13.7896 17.0688 13.9743 16.9998 14.1481 16.9074C14.4886 16.7265 14.7857 16.475 14.9081 16.3531L19.4252 11.8218C20.1657 11.0785 20.1657 9.87283 19.4252 9.12952C18.6833 8.38526 17.4786 8.38526 16.7362 9.12952L12.5458 13.3323H7.90102L5.82341 5.57581L9.96196 4.46727C10.2158 4.39917 10.3667 4.1368 10.2986 3.883C9.6672 1.52687 7.52197 -0.022607 5.18961 0.000249487ZM15.7143 0.000249487C15.4515 0.000249487 15.2381 0.213577 15.2381 0.476427V1.42878C15.2381 1.69163 15.4515 1.90496 15.7143 1.90496C15.9772 1.90496 16.1905 1.69163 16.1905 1.42878V0.476427C16.1905 0.213577 15.9772 0.000249487 15.7143 0.000249487ZM5.32484 0.953556C7.03102 0.987365 8.5934 2.04591 9.23006 3.67681L5.12103 4.77774C5.11913 4.77821 5.11722 4.77821 5.11532 4.77869C5.11389 4.77916 5.11246 4.78012 5.11056 4.78059L1.00201 5.88199C0.676773 3.75205 2.0001 1.6702 4.12961 1.09974C4.52866 0.992603 4.93104 0.945938 5.32484 0.953556ZM13.021 1.11641C12.8991 1.11641 12.7772 1.16307 12.6843 1.25593C12.4981 1.44164 12.4981 1.74306 12.6843 1.92924L13.3577 2.60256C13.5434 2.78827 13.8453 2.78827 14.031 2.60256C14.2167 2.41685 14.2167 2.11495 14.031 1.92924L13.3577 1.25593C13.2648 1.16307 13.1429 1.11641 13.021 1.11641ZM18.4076 1.11641C18.2857 1.11641 18.1638 1.16307 18.071 1.25593L17.3976 1.92924C17.2119 2.11495 17.2119 2.41685 17.3976 2.60256C17.5833 2.78827 17.8853 2.78827 18.071 2.60256L18.7443 1.92924C18.9305 1.74306 18.9305 1.44164 18.7443 1.25593C18.6514 1.16307 18.5295 1.11641 18.4076 1.11641ZM15.7143 2.38114C14.6629 2.38114 13.8096 3.23445 13.8096 4.28584C13.8096 5.33724 14.6629 6.19055 15.7143 6.19055C16.7657 6.19055 17.6191 5.33724 17.6191 4.28584C17.6191 3.23445 16.7657 2.38114 15.7143 2.38114ZM15.7143 3.33349C16.24 3.33349 16.6667 3.76015 16.6667 4.28584C16.6667 4.81154 16.24 5.2382 15.7143 5.2382C15.1886 5.2382 14.7619 4.81154 14.7619 4.28584C14.7619 3.76015 15.1886 3.33349 15.7143 3.33349ZM11.9048 3.80967C11.642 3.80967 11.4286 4.02299 11.4286 4.28584C11.4286 4.54869 11.642 4.76202 11.9048 4.76202H12.8572C13.12 4.76202 13.3334 4.54869 13.3334 4.28584C13.3334 4.02299 13.12 3.80967 12.8572 3.80967H11.9048ZM18.5714 3.80967C18.3086 3.80967 18.0952 4.02299 18.0952 4.28584C18.0952 4.54869 18.3086 4.76202 18.5714 4.76202H19.5238C19.7867 4.76202 20 4.54869 20 4.28584C20 4.02299 19.7867 3.80967 19.5238 3.80967H18.5714ZM13.6943 5.82961C13.5724 5.82961 13.4505 5.87628 13.3577 5.96913L12.6843 6.64245C12.4981 6.82863 12.4981 7.13005 12.6843 7.31576C12.87 7.50195 13.1715 7.50195 13.3577 7.31576L14.031 6.64245C14.2167 6.45674 14.2167 6.15484 14.031 5.96913C13.9381 5.87628 13.8162 5.82961 13.6943 5.82961ZM17.7343 5.82961C17.6124 5.82961 17.4905 5.87628 17.3976 5.96913C17.2119 6.15484 17.2119 6.45674 17.3976 6.64245L18.071 7.31576C18.2572 7.50195 18.5586 7.50195 18.7443 7.31576C18.9305 7.13005 18.9305 6.82863 18.7443 6.64245L18.071 5.96913C17.9781 5.87628 17.8562 5.82961 17.7343 5.82961ZM15.7143 6.66673C15.4515 6.66673 15.2381 6.88006 15.2381 7.14291V8.09526C15.2381 8.35811 15.4515 8.57144 15.7143 8.57144C15.9772 8.57144 16.1905 8.35811 16.1905 8.09526V7.14291C16.1905 6.88006 15.9772 6.66673 15.7143 6.66673ZM18.0805 9.5238C18.3229 9.5238 18.5662 9.61665 18.751 9.80188C19.1219 10.1738 19.1219 10.7776 18.751 11.1495L14.2338 15.6808C14.1486 15.766 13.9386 15.9398 13.7005 16.0665C13.5796 16.1308 13.4524 16.1893 13.3334 16.1893H1.9001C1.37677 16.1893 0.952486 15.7622 0.952486 15.237C0.952486 14.7117 1.37677 14.2846 1.9001 14.2846H12.7438C12.87 14.2846 12.991 14.2346 13.0805 14.1451L17.4105 9.80188C17.5957 9.61665 17.8381 9.5238 18.0805 9.5238Z" fill="black"/>
</svg>
