<svg width="23" height="20" viewBox="0 0 23 20" fill="none" xmlns="http://www.w3.org/2000/svg">
<path fill-rule="evenodd" clip-rule="evenodd" d="M6.95447 13.9987C7.08708 13.9987 7.21425 13.946 7.30802 13.8523C7.40179 13.7585 7.45447 13.6313 7.45447 13.4987V10.9987H14.4545V13.4987C14.4545 13.6313 14.5071 13.7585 14.6009 13.8523C14.6947 13.946 14.8219 13.9987 14.9545 13.9987C15.0871 13.9987 15.2143 13.946 15.308 13.8523C15.4018 13.7585 15.4545 13.6313 15.4545 13.4987V2.49872C15.4545 2.10089 15.6125 1.71936 15.8938 1.43806C16.1751 1.15675 16.5566 0.998718 16.9545 0.998718C17.3523 0.998718 17.7338 1.15675 18.0151 1.43806C18.2964 1.71936 18.4545 2.10089 18.4545 2.49872C18.4545 2.63133 18.5071 2.7585 18.6009 2.85227C18.6947 2.94604 18.8219 2.99872 18.9545 2.99872C19.0871 2.99872 19.2143 2.94604 19.308 2.85227C19.4018 2.7585 19.4545 2.63133 19.4545 2.49872C19.4545 1.83568 19.1911 1.19979 18.7222 0.730951C18.2534 0.26211 17.6175 -0.00128174 16.9545 -0.00128174C16.2914 -0.00128174 15.6555 0.26211 15.1867 0.730951C14.7179 1.19979 14.4545 1.83568 14.4545 2.49872V5.99872H7.45447V2.49872C7.45447 2.10089 7.6125 1.71936 7.89381 1.43806C8.17511 1.15675 8.55664 0.998718 8.95447 0.998718C9.35229 0.998718 9.73382 1.15675 10.0151 1.43806C10.2964 1.71936 10.4545 2.10089 10.4545 2.49872C10.4545 2.63133 10.5071 2.7585 10.6009 2.85227C10.6947 2.94604 10.8219 2.99872 10.9545 2.99872C11.0871 2.99872 11.2143 2.94604 11.308 2.85227C11.4018 2.7585 11.4545 2.63133 11.4545 2.49872C11.4545 1.83568 11.1911 1.19979 10.7222 0.730951C10.2534 0.26211 9.61751 -0.00128174 8.95447 -0.00128174C8.29143 -0.00128174 7.65554 0.26211 7.1867 0.730951C6.71786 1.19979 6.45447 1.83568 6.45447 2.49872V13.4987C6.45447 13.6313 6.50715 13.7585 6.60091 13.8523C6.69468 13.946 6.82186 13.9987 6.95447 13.9987ZM14.4545 6.99872V9.99872H7.45447V6.99872H14.4545ZM21.9545 14.7388C20.9649 14.7159 19.9864 14.9502 19.1145 15.4188C18.3758 15.8198 17.5447 16.0198 16.7045 15.9988C15.8641 16.0212 15.0327 15.8211 14.2945 15.4188C13.4213 14.9536 12.4436 14.7195 11.4545 14.7388C10.4652 14.7186 9.48732 14.9528 8.61447 15.4188C7.87333 15.8228 7.03824 16.023 6.19447 15.9988C5.35738 16.0199 4.52953 15.8198 3.79447 15.4188C2.92258 14.9502 1.94402 14.7159 0.954468 14.7388C0.82186 14.7388 0.694683 14.7914 0.600914 14.8852C0.507146 14.979 0.454468 15.1062 0.454468 15.2388C0.454468 15.3714 0.507146 15.4986 0.600914 15.5923C0.694683 15.6861 0.82186 15.7388 0.954468 15.7388C1.79473 15.7178 2.62577 15.9178 3.36447 16.3188C4.23322 16.7861 5.20823 17.0204 6.19447 16.9988C7.18701 17.0198 8.16832 16.7856 9.04447 16.3188C9.77953 15.9177 10.6074 15.7176 11.4445 15.7388C12.2849 15.7163 13.1163 15.9164 13.8545 16.3188C14.7306 16.7856 15.7119 17.0198 16.7045 16.9988C17.6939 17.0203 18.6721 16.7861 19.5445 16.3188C20.2827 15.9164 21.1141 15.7163 21.9545 15.7388C22.0871 15.7388 22.2143 15.6861 22.308 15.5923C22.4018 15.4986 22.4545 15.3714 22.4545 15.2388C22.4545 15.1062 22.4018 14.979 22.308 14.8852C22.2143 14.7914 22.0871 14.7388 21.9545 14.7388ZM16.7044 18.9987H16.9344H16.9744C17.107 18.9987 17.2342 19.0514 17.3279 19.1451C17.4217 19.2389 17.4744 19.3661 17.4744 19.4987C17.4744 19.6313 17.4217 19.7585 17.3279 19.8522C17.2342 19.946 17.107 19.9987 16.9744 19.9987H16.7044C15.7119 20.0197 14.7305 19.7855 13.8544 19.3187C13.1162 18.9164 12.2848 18.7163 11.4444 18.7387C10.6073 18.7176 9.77945 18.9176 9.0444 19.3187C8.16825 19.7855 7.18694 20.0197 6.1944 19.9987H5.9344C5.86872 19.9961 5.80419 19.9806 5.74451 19.9531C5.68483 19.9255 5.63116 19.8865 5.58658 19.8382C5.542 19.7899 5.50737 19.7333 5.48469 19.6716C5.46201 19.6099 5.45172 19.5444 5.4544 19.4787C5.45562 19.4126 5.47021 19.3474 5.49729 19.2871C5.52437 19.2268 5.56337 19.1726 5.61195 19.1277C5.66054 19.0829 5.71769 19.0483 5.77998 19.0261C5.84227 19.004 5.9084 18.9946 5.9744 18.9987H6.1944C7.03817 19.0229 7.87326 18.8227 8.6144 18.4187C9.48725 17.9527 10.4651 17.7185 11.4544 17.7387C12.4436 17.7194 13.4212 17.9535 14.2944 18.4187C15.0326 18.821 15.864 19.0211 16.7044 18.9987Z" fill="black"/>
</svg>
