<svg width="22" height="19" viewBox="0 0 22 19" fill="none" xmlns="http://www.w3.org/2000/svg">
<path d="M0.977417 17.5253C0.756831 17.7324 0.408204 17.7193 0.200913 17.4988C-0.00637883 17.2781 0.00678662 16.9296 0.227373 16.7223C1.02595 15.9766 1.89939 15.6636 2.75953 15.6636C3.73455 15.6636 4.6742 16.0694 5.46826 16.6914C5.48594 16.7047 5.49911 16.7179 5.51666 16.7356C5.96222 17.1415 6.35925 17.4237 6.7253 17.5957C7.06503 17.759 7.37377 17.8341 7.6607 17.8429C8.40184 17.8606 9.05043 17.406 9.72535 16.934C10.6163 16.3122 11.5472 15.6592 12.9235 15.6856C14.2956 15.712 15.2 16.3605 16.0601 16.9782C16.6998 17.4414 17.3131 17.8781 18.0321 17.9002C18.3454 17.909 18.6895 17.843 19.0731 17.671C19.4923 17.4856 19.96 17.1769 20.4893 16.7093C20.7186 16.5107 21.0626 16.5328 21.2658 16.762C21.4643 16.9915 21.4422 17.3357 21.2127 17.5387C20.5954 18.0812 20.0349 18.4474 19.5188 18.6767C18.9719 18.9194 18.4689 19.0121 17.9969 18.9988C16.9425 18.968 16.1971 18.4341 15.4161 17.8695C14.6927 17.3489 13.9294 16.8018 12.8972 16.7841C11.878 16.762 11.0973 17.3137 10.3516 17.8343C9.52232 18.4121 8.73278 18.968 7.62985 18.9414C7.19307 18.9327 6.73421 18.8223 6.24464 18.5886C5.78591 18.368 5.30072 18.0326 4.77578 17.5476C4.16694 17.0756 3.46556 16.7666 2.75953 16.7666C2.16412 16.7663 1.55089 16.9914 0.977417 17.5253Z" fill="black"/>
<path d="M13.837 2.03191C13.9295 1.87315 14.1324 1.82462 14.2913 1.91717C14.4501 2.00984 14.4986 2.21274 14.4061 2.37163L13.912 3.20545C13.8193 3.36421 13.6164 3.41274 13.4575 3.32019C13.2987 3.22752 13.2502 3.02462 13.3429 2.86573L13.837 2.03191Z" fill="black"/>
<path d="M4.98315 4.93026C5.14191 5.02294 5.19044 5.22584 5.0979 5.38473C5.00522 5.54349 4.80219 5.59202 4.64343 5.49948L3.89339 5.05379C3.73463 4.96124 3.6861 4.75821 3.77877 4.59932C3.87132 4.44056 4.07422 4.39203 4.23311 4.4847L4.98315 4.93026Z" fill="black"/>
<path d="M17.7189 8.26995C17.8997 8.26995 18.0453 8.42006 18.0453 8.60076C18.0453 8.78159 17.8954 8.92719 17.7145 8.92719L16.7924 8.91841C16.6116 8.91841 16.4661 8.76843 16.4661 8.5876C16.4661 8.40676 16.616 8.26117 16.7969 8.26117L17.7189 8.26995Z" fill="black"/>
<path d="M3.86248 8.11101C4.04332 8.11101 4.18891 8.26112 4.18891 8.44183C4.18891 8.62266 4.03893 8.76825 3.8581 8.76825L3.03758 8.75947C2.85675 8.75947 2.71115 8.60949 2.71115 8.42866C2.71115 8.24783 2.86113 8.10223 3.04197 8.10223L3.86248 8.11101Z" fill="black"/>
<path d="M7.5195 2.75541C7.60792 2.91417 7.55035 3.11721 7.39159 3.20549C7.23283 3.29378 7.02993 3.23634 6.94177 3.07745L6.49182 2.27462C6.40354 2.11586 6.46097 1.91282 6.61973 1.8248C6.77849 1.73638 6.9814 1.79382 7.06955 1.95258L7.5195 2.75541Z" fill="black"/>
<path d="M16.6161 4.63046C16.7748 4.54218 16.978 4.59949 17.066 4.75825C17.1543 4.91701 17.0969 5.12017 16.9381 5.2082L16.1043 5.67583C15.9455 5.76411 15.7425 5.70668 15.6545 5.54792C15.5662 5.38916 15.6235 5.18625 15.7823 5.09784L16.6161 4.63046Z" fill="black"/>
<path d="M10.1312 1.17182C10.1312 0.990993 10.2812 0.845398 10.462 0.845398C10.6429 0.845398 10.7885 0.995381 10.7885 1.17621L10.7752 2.13342C10.7752 2.31438 10.6252 2.45985 10.4443 2.45985C10.2635 2.45985 10.1179 2.30999 10.1179 2.12903L10.1312 1.17182Z" fill="black"/>
<path d="M7.23745 7.41848C7.54168 6.5493 8.1682 5.88767 8.93154 5.5171C9.69901 5.14653 10.6078 5.07154 11.4726 5.37151C12.3415 5.67586 13.0033 6.30239 13.374 7.06547C13.7444 7.83319 13.8194 8.742 13.5196 9.60666C13.2152 10.4757 12.5886 11.1373 11.8254 11.5079C11.0579 11.8786 10.1491 11.9535 9.28443 11.6535C8.41538 11.3491 7.75375 10.7228 7.38305 9.95955C7.01235 9.19182 6.93749 8.28314 7.23745 7.41848ZM9.41234 6.50968C8.90056 6.75685 8.48146 7.20228 8.27856 7.78027C8.07566 8.36252 8.12858 8.96684 8.37549 9.48301C8.62267 9.99465 9.06823 10.4139 9.64609 10.6168C10.2285 10.8196 10.8328 10.7668 11.3488 10.5196C11.8607 10.2727 12.2797 9.82699 12.4826 9.24926C12.6856 8.66688 12.6326 8.06243 12.3857 7.54626C12.1385 7.03462 11.6931 6.61552 11.1151 6.41248C10.5328 6.20971 9.92837 6.26276 9.41234 6.50968Z" fill="black"/>
<path d="M0.977417 14.7459C0.756831 14.9532 0.408204 14.94 0.200913 14.7196C-0.00637883 14.499 0.00678662 14.1504 0.227373 13.9429C1.02595 13.1975 1.89939 12.8843 2.75953 12.8843C3.73455 12.8843 4.6742 13.2902 5.46826 13.9122C5.48594 13.9255 5.49911 13.9387 5.51666 13.9562C5.96222 14.3667 6.35925 14.6444 6.7253 14.8165C7.06503 14.9798 7.37377 15.0548 7.6607 15.0635C8.40184 15.0812 9.05043 14.6268 9.72535 14.1547C10.6163 13.5329 11.5472 12.8799 12.9235 12.9063C14.2956 12.9328 15.2 13.5813 16.0601 14.199C16.6998 14.6623 17.3131 15.0989 18.0321 15.121C18.3454 15.1298 18.6895 15.0637 19.0731 14.8916C19.4923 14.7064 19.96 14.3977 20.4893 13.93C20.7186 13.7315 21.0626 13.7536 21.2658 13.9828C21.4643 14.2123 21.4422 14.5564 21.2127 14.7593C20.5954 15.3019 20.0349 15.6683 19.5188 15.8975C18.9719 16.14 18.4689 16.2328 17.9969 16.2195C16.9425 16.1887 16.1971 15.655 15.4161 15.0901C14.6927 14.5697 13.9294 14.0226 12.8972 14.005C11.878 13.9828 11.0973 14.5345 10.3516 15.0549C9.52232 15.6329 8.73278 16.1887 7.62985 16.1622C7.19307 16.1536 6.73421 16.0431 6.24464 15.8093C5.78591 15.5887 5.30072 15.2534 4.77578 14.7682C4.16694 14.2962 3.46556 13.9873 2.75953 13.9873C2.16412 13.9871 1.55089 14.2122 0.977417 14.7459Z" fill="black"/>
</svg>
