<svg width="16" height="25" viewBox="0 0 16 25" fill="none" xmlns="http://www.w3.org/2000/svg">
<path d="M15.8662 8.3252L14.453 0.262211C14.4193 0.0983291 14.2847 0 14.1165 0H1.86882C1.70059 0 1.566 0.131105 1.53235 0.262211L0.119154 8.3252C-0.217321 10.2918 0.152802 12.3567 1.29682 14.0611C2.67636 16.126 4.93075 17.3715 7.38701 17.5681V23.0334C7.38701 23.4267 7.08419 23.7545 6.71406 23.7873L2.74366 24.3117C2.60907 24.3117 2.54177 24.4428 2.54177 24.5411V24.7706C2.54177 24.9017 2.64272 25 2.77731 25H13.2417C13.3763 25 13.4772 24.9017 13.4772 24.7706V24.5411C13.4772 24.41 13.3763 24.3117 13.2753 24.3117L9.33857 23.7873C8.9348 23.7217 8.66562 23.4267 8.66562 23.0334V17.5681C11.1219 17.3715 13.3426 16.126 14.7222 14.0611C15.8325 12.3895 16.2363 10.3246 15.8662 8.3252ZM2.40718 1.27828C2.44083 1.1144 2.57542 1.01607 2.74366 1.01607H13.2417C13.4099 1.01607 13.5445 1.14717 13.5782 1.27828L14.7222 7.80078C13.78 6.88304 12.4678 6.0964 10.7518 5.89975C10.5162 5.86697 10.3143 5.86697 10.0788 5.86697C8.49738 5.86697 7.35337 6.58805 6.34394 7.24358C4.86345 8.19409 3.65214 8.94795 1.29682 7.66967L2.40718 1.27828ZM13.8137 13.5039C12.5351 15.4377 10.348 16.5848 7.99267 16.5848C5.63734 16.5848 3.45026 15.4377 2.17165 13.5039C1.22952 12.0945 0.859399 10.3573 1.12858 8.68574C3.85403 9.99679 5.46911 8.98073 6.91595 8.06299C8.02632 7.37468 9.06939 6.71916 10.6172 6.88304C12.737 7.14525 14.1165 8.48908 14.9577 9.63625C14.9913 11.0129 14.5876 12.3567 13.8137 13.5039Z" fill="black"/>
</svg>
