<svg width="21" height="26" viewBox="0 0 21 26" fill="none" xmlns="http://www.w3.org/2000/svg">
<path fill-rule="evenodd" clip-rule="evenodd" d="M5.97581 1C5.87322 1 5.77483 1.03951 5.70229 1.10983C5.62974 1.18016 5.58899 1.27554 5.58899 1.37499V19.4158C4.15543 19.5253 2.89362 19.8156 1.95829 20.2536C1.43608 20.4981 1.00981 20.7846 0.708086 21.128C0.406366 21.4715 0.231523 21.8938 0.281036 22.3303C0.379289 23.204 1.22256 23.8332 2.35826 24.2772C3.49397 24.7212 4.99329 24.986 6.64501 24.9995C8.29751 25.013 9.82004 24.7715 10.9936 24.347C12.168 23.924 13.0531 23.3248 13.2364 22.4623C13.3277 22.031 13.1947 21.5945 12.9223 21.2398C12.6492 20.8843 12.2469 20.5881 11.7464 20.3338C10.7979 19.8523 9.47809 19.5298 7.95092 19.4128V8.57333L15.8142 5.98739C15.8908 5.96221 15.9573 5.91442 16.0044 5.85073C16.0514 5.78703 16.0768 5.71064 16.0768 5.63227C16.0768 5.55391 16.0514 5.47751 16.0044 5.41381C15.9573 5.35012 15.8908 5.30233 15.8142 5.27715L7.95092 2.69196V1.37499C7.95092 1.27554 7.91016 1.18016 7.83762 1.10983C7.76508 1.03951 7.66669 1 7.5641 1H5.97504H5.97581ZM6.36263 1.74998H7.17728V22.2253C7.17728 22.3247 7.21803 22.4201 7.29057 22.4904C7.36312 22.5608 7.46151 22.6003 7.5641 22.6003C7.66669 22.6003 7.76508 22.5608 7.83762 22.4904C7.91016 22.4201 7.95092 22.3247 7.95092 22.2253V20.1553C9.3721 20.2716 10.5883 20.5821 11.3928 20.9901C11.823 21.209 12.1355 21.4535 12.3104 21.6815C12.4852 21.9103 12.5332 22.1015 12.4883 22.313C12.3986 22.7368 11.7874 23.2715 10.7283 23.6532C9.6684 24.0357 8.22169 24.2705 6.6512 24.2585C5.08071 24.2457 3.65953 23.987 2.64374 23.591C1.62795 23.1935 1.08794 22.667 1.04075 22.25C1.01754 22.0415 1.08717 21.8405 1.28986 21.6088C1.49411 21.3763 1.83528 21.1333 2.29018 20.9203C3.09477 20.5438 4.25601 20.2678 5.58899 20.1583V22.2245C5.58899 22.324 5.62974 22.4194 5.70229 22.4897C5.77483 22.56 5.87322 22.5995 5.97581 22.5995C6.0784 22.5995 6.17679 22.56 6.24933 22.4897C6.32188 22.4194 6.36263 22.324 6.36263 22.2245V1.74998ZM7.95092 3.48469L14.4859 5.6319L7.95092 7.7806V3.48469ZM18.5715 18.3996C18.1436 18.3996 17.7499 18.5009 17.4365 18.6899C17.124 18.8788 16.8702 19.1878 16.8702 19.5703C16.8702 19.9528 17.124 20.2611 17.4365 20.4508C17.7499 20.6398 18.1436 20.7403 18.5715 20.7403C19.0001 20.7403 19.3938 20.6398 19.7064 20.4508C20.0197 20.2611 20.2727 19.9521 20.2727 19.5703C20.2727 19.1878 20.0197 18.8788 19.7064 18.6899C19.3938 18.5009 19.0001 18.3996 18.5715 18.3996ZM18.5715 19.1496C18.8693 19.1496 19.1339 19.2268 19.2971 19.3258C19.4596 19.4241 19.4991 19.5133 19.4991 19.5703C19.4991 19.6273 19.4604 19.7143 19.2971 19.8133C19.1347 19.9116 18.8693 19.9903 18.5715 19.9903C18.2736 19.9903 18.009 19.9116 17.8466 19.8133C17.6841 19.7151 17.6439 19.6273 17.6439 19.5703C17.6439 19.5126 17.6833 19.4241 17.8466 19.3258C18.009 19.2268 18.2736 19.1496 18.5715 19.1496Z" fill="black" stroke="black" stroke-width="0.4"/>
</svg>
