<svg width="17" height="29" viewBox="0 0 17 29" fill="none" xmlns="http://www.w3.org/2000/svg">
<path d="M16.1869 27.2923H12.217C12.6363 25.4572 12.9126 23.5932 13.0435 21.7165C13.0525 21.6896 13.0582 21.6618 13.0603 21.6336C13.061 21.6207 13.061 21.6077 13.0603 21.5949C13.1739 19.8984 13.111 18.1949 12.8726 16.5111C12.8748 16.489 12.8748 16.4668 12.8726 16.4448C12.8715 16.3876 12.8561 16.3315 12.8277 16.2817C12.6355 15.0437 12.3125 13.8291 11.864 12.6575C11.864 12.6575 11.864 12.6409 11.864 12.6299C11.8556 10.786 15.4528 10.6754 15.4893 10.6754C15.5844 10.6754 15.6756 10.6382 15.7428 10.5718C15.8101 10.5054 15.8479 10.4154 15.8479 10.3216C15.8479 10.2277 15.8101 10.1377 15.7428 10.0714C15.6756 10.005 15.5844 9.96775 15.4893 9.96775H10.508C8.34235 6.61452 5.51833 5.32354 4.66664 4.99734V1.35384C4.66664 1.26 4.62886 1.17 4.56161 1.10364C4.49436 1.03728 4.40314 1 4.30803 1C4.21293 1 4.12171 1.03728 4.05446 1.10364C3.98721 1.17 3.94943 1.26 3.94943 1.35384V9.95945H1.85943C1.76432 9.95945 1.67311 9.99674 1.60585 10.0631C1.5386 10.1295 1.50082 10.2195 1.50082 10.3133C1.50082 10.4071 1.5386 10.4971 1.60585 10.5635C1.67311 10.6299 1.76432 10.6671 1.85943 10.6671H3.94943V27.2923H0.904078C0.808969 27.2923 0.717756 27.3296 0.650504 27.3959C0.583253 27.4623 0.545471 27.5523 0.545471 27.6462C0.545471 27.74 0.583253 27.83 0.650504 27.8964C0.717756 27.9627 0.808969 28 0.904078 28H16.1869C16.282 28 16.3732 27.9627 16.4404 27.8964C16.5077 27.83 16.5455 27.74 16.5455 27.6462C16.5455 27.5523 16.5077 27.4623 16.4404 27.3959C16.3732 27.3296 16.282 27.2923 16.1869 27.2923ZM4.65543 16.7875H12.1834C12.3825 18.2727 12.4406 19.7729 12.3571 21.2687H4.66664L4.65543 16.7875ZM12.4831 10.6754C12.0484 10.888 11.6818 11.2152 11.4241 11.6209C11.2672 11.2891 11.1047 10.9712 10.9338 10.6671L12.4831 10.6754ZM4.66664 5.76031C6.69346 6.67477 8.42077 8.1302 9.65351 9.96222H4.66664V5.76031ZM10.1102 10.6754C11.0956 12.3493 11.7604 14.1879 12.0713 16.0992H4.66664V10.6754H10.1102ZM4.66664 21.9874H12.3038C12.1617 23.7731 11.8874 25.5461 11.483 27.2923H4.66664V21.9874Z" fill="black" stroke="black" stroke-width="0.5"/>
</svg>
