<svg width="25" height="20" viewBox="0 0 25 20" fill="none" xmlns="http://www.w3.org/2000/svg">
<path fill-rule="evenodd" clip-rule="evenodd" d="M9.69568 7.2958C9.62052 7.3036 9.54558 7.30762 9.47086 7.30762C8.94336 7.30762 8.42747 7.11313 7.96666 6.73842C7.20431 6.11881 6.69934 5.09817 6.58135 3.93879C6.37638 1.93097 7.43962 0.169388 8.95095 0.0119201C9.55762 -0.0518698 10.1543 0.141284 10.6802 0.569302C11.4425 1.18913 11.9475 2.20955 12.0655 3.36892C12.27 5.37675 11.2068 7.13833 9.69568 7.2958ZM11.1568 3.46171C11.0645 2.55527 10.6708 1.73916 10.1038 1.27813C9.8933 1.10683 9.5681 0.913901 9.17243 0.913901C9.13094 0.913901 9.08879 0.916132 9.04574 0.920593C8.05142 1.02408 7.33902 2.3639 7.49002 3.84601C7.58236 4.75245 7.97603 5.56878 8.543 6.02959C8.77564 6.21895 9.14611 6.43597 9.60089 6.38713C10.5952 6.28363 11.3076 4.94382 11.1568 3.46171ZM1.20492 8.82795C0.328365 7.11365 0.666496 5.16918 1.9588 4.49336C2.47894 4.22102 3.08226 4.18177 3.70433 4.37894C4.59627 4.66287 5.39766 5.39266 5.90285 6.38074C6.77896 8.09482 6.44105 10.0395 5.14897 10.7156C4.84586 10.8739 4.51486 10.9535 4.1687 10.9535C3.91978 10.9535 3.66306 10.9125 3.40322 10.8298C2.51128 10.5458 1.70989 9.81603 1.20492 8.82795ZM4.72564 9.90592C5.56093 9.46898 5.72754 8.04485 5.08919 6.79649C4.70021 6.03525 4.07881 5.4569 3.42709 5.24947C3.29192 5.20642 3.1233 5.16984 2.94041 5.16984C2.76175 5.16984 2.56949 5.20486 2.38214 5.303C1.54662 5.73994 1.38001 7.16362 2.01835 8.4122C2.40734 9.17345 3.02873 9.75179 3.68024 9.95922C3.94789 10.0442 4.34646 10.1044 4.72564 9.90592ZM16.1652 7.30758C16.6926 7.30758 17.2085 7.11309 17.6693 6.73838C18.4317 6.11877 18.9367 5.09813 19.0547 3.93876C19.2596 1.93093 18.1964 0.169349 16.6848 0.0118819C16.0795 -0.0501238 15.482 0.141692 14.9558 0.569263C14.1935 1.1891 13.6885 2.20951 13.5705 3.36888C13.366 5.37671 14.4292 7.13829 15.9405 7.29576C16.0155 7.30357 16.0904 7.30758 16.1652 7.30758ZM16.4636 0.913863C16.5051 0.913863 16.5472 0.916093 16.59 0.920554C17.5846 1.02405 18.297 2.36386 18.146 3.84597C18.0536 4.75241 17.66 5.56875 17.093 6.02955C16.8604 6.21891 16.4886 6.43593 16.0351 6.38709C15.0408 6.2836 14.3284 4.94378 14.4792 3.46167C14.5715 2.55523 14.9652 1.73912 15.5322 1.27809C15.7427 1.10679 16.0679 0.913863 16.4636 0.913863ZM21.9319 4.37892C22.5538 4.18109 23.1573 4.22079 23.6775 4.49334C24.9698 5.16916 25.3079 7.11364 24.4316 8.82794C23.9264 9.81602 23.125 10.5458 22.233 10.8297C21.9732 10.9125 21.7165 10.9535 21.4676 10.9535C21.1214 10.9535 20.7904 10.8739 20.4873 10.7155C19.1952 10.0395 18.8571 8.0948 19.7334 6.38072C20.2386 5.39265 21.04 4.66286 21.9319 4.37892ZM20.9106 9.9059C21.2896 10.1046 21.6882 10.0444 21.956 9.95921C22.6075 9.75178 23.2289 9.17343 23.6179 8.41219C24.2563 7.1636 24.0896 5.73993 23.2541 5.30299C23.0666 5.20485 22.8745 5.16983 22.6959 5.16983C22.5132 5.16983 22.3443 5.20641 22.2092 5.24946C21.5575 5.45689 20.9361 6.03523 20.5471 6.79647C19.9087 8.04484 20.0753 9.46896 20.9106 9.9059ZM19.5244 19.6833C20.3664 19.2394 20.8814 18.4059 20.9019 17.4533L20.9037 17.2784C20.9037 14.988 19.9261 12.7957 18.2216 11.2634C16.4935 9.71018 14.2582 8.99154 11.9303 9.24045C8.22554 9.63591 5.22206 12.6113 4.78869 16.3151C4.74252 16.7103 4.72468 17.1091 4.73538 17.5004C4.76081 18.4354 5.27291 19.2537 6.10531 19.6893C6.50254 19.8972 6.93837 20 7.37441 20C7.90726 20 8.44078 19.8463 8.90493 19.5423C10.0683 18.7806 11.4215 18.378 12.818 18.378C14.2129 18.378 15.565 18.78 16.7277 19.5401C17.5726 20.0928 18.6443 20.1472 19.5244 19.6833ZM12.0271 10.1487C14.0956 9.92854 16.0782 10.5651 17.6109 11.9428C19.1229 13.302 19.9901 15.2467 19.9901 17.2784L19.9883 17.4341C19.9749 18.0586 19.6506 18.5841 19.0984 18.8752C18.5118 19.1845 17.7949 19.146 17.2277 18.7755C15.9158 17.9179 14.3911 17.4645 12.818 17.4645C11.2433 17.4645 9.71702 17.9188 8.40442 18.7782C7.83745 19.1498 7.11814 19.1886 6.52886 18.8797C5.98598 18.5957 5.66502 18.0838 5.64852 17.4754C5.63915 17.1277 5.65499 16.773 5.69602 16.4211C6.08033 13.1374 8.74277 10.4993 12.0271 10.1487Z" fill="black"/>
</svg>
