<svg width="27" height="26" viewBox="0 0 27 26" fill="none" xmlns="http://www.w3.org/2000/svg">
<path d="M25.6094 25.037H25.1279V23.1111H25.6094C25.8983 23.1111 26.0909 22.9185 26.0909 22.6296C26.0909 22.3407 25.8983 22.1481 25.6094 22.1481H25.1279V20.7037C25.1279 20.4148 24.9354 20.2222 24.6465 20.2222C24.3576 20.2222 24.165 20.4148 24.165 20.7037V22.1481H23.202V20.7037C23.202 20.4148 23.0094 20.2222 22.7205 20.2222C22.4317 20.2222 22.2391 20.4148 22.2391 20.7037V22.1481H21.2761V20.7037C21.2761 20.4148 21.0835 20.2222 20.7946 20.2222C20.5057 20.2222 20.3131 20.4148 20.3131 20.7037V22.1481H19.8317C19.5428 22.1481 19.3502 22.3407 19.3502 22.6296C19.3502 22.9185 19.5428 23.1111 19.8317 23.1111H20.3131V25.037H17.4242V17.3333C22.2391 17.1407 26.0909 13.2889 26.0909 8.66667C26.0909 3.85185 21.9502 0 16.9428 0C11.9354 0 7.79462 3.85185 7.79462 8.66667C7.79462 13.2889 11.6465 17.0444 16.4613 17.3333V25.037H12.9946C13.5724 23.5926 13.0909 21.8593 11.7428 20.9926C11.2613 20.7037 10.7798 20.5111 10.2983 20.5111C9.81684 19.7407 9.14276 19.163 8.1798 18.9704C7.31313 18.7778 6.44647 18.8741 5.5798 19.3556C4.80943 19.837 4.23165 20.5111 4.03906 21.3778C4.03906 21.4741 4.03906 21.6667 4.13536 21.763C2.69091 22.0519 1.53536 23.4 1.53536 25.037H0.572393C0.283504 25.037 0.0909119 25.2296 0.0909119 25.5185C0.0909119 25.8074 0.283504 26 0.572393 26H25.6094C25.8983 26 26.0909 25.8074 26.0909 25.5185C26.0909 25.2296 25.8983 25.037 25.6094 25.037ZM8.75758 8.66667C8.75758 4.42963 12.4168 0.962963 16.9428 0.962963C21.4687 0.962963 25.1279 4.42963 25.1279 8.66667C25.1279 12.8074 21.7576 16.0815 17.4242 16.3704V12.2296L19.4465 10.2074C19.6391 10.0148 19.6391 9.72593 19.4465 9.53333C19.2539 9.34074 18.965 9.34074 18.7724 9.53333L17.4242 10.8815V8.18519C17.4242 7.8963 17.2317 7.7037 16.9428 7.7037C16.6539 7.7037 16.4613 7.8963 16.4613 8.18519V12.037L15.1131 10.6889C14.9205 10.4963 14.6317 10.4963 14.4391 10.6889C14.2465 10.8815 14.2465 11.1704 14.4391 11.363L16.4613 13.3852V16.2741C12.1279 16.0815 8.75758 12.8074 8.75758 8.66667ZM24.165 23.1111V25.037H23.202V23.1111H24.165ZM21.2761 23.1111H22.2391V25.037H21.2761V23.1111ZM2.49832 25.037C2.49832 23.6889 3.55758 22.6296 4.90573 22.6296C5.19462 22.6296 5.4835 22.6296 5.6761 22.7259C5.96499 22.8222 6.15758 22.7259 6.25387 22.437C6.35017 22.1481 6.25388 21.9556 5.96499 21.8593C5.6761 21.6667 5.38721 21.6667 5.00202 21.6667C5.00202 21.6667 5.00202 21.6667 5.09832 21.5704C5.29091 20.9926 5.6761 20.4148 6.15758 20.1259C6.73536 19.837 7.31313 19.7407 7.98721 19.837C8.46869 19.9333 8.85387 20.2222 9.14276 20.5111C8.95017 20.5111 8.66128 20.6074 8.46869 20.7037C8.1798 20.8 8.0835 21.0889 8.1798 21.3778C8.2761 21.6667 8.56499 21.763 8.85388 21.6667C9.62425 21.3778 10.4909 21.3778 11.165 21.8593C12.2242 22.5333 12.5131 23.9778 11.8391 25.1333L2.49832 25.037Z" fill="black"/>
</svg>
