<svg width="25" height="22" viewBox="0 0 25 22" fill="none" xmlns="http://www.w3.org/2000/svg">
<path d="M12.2951 0.00430521C12.2291 0.0127108 12.1652 0.0330432 12.1065 0.0643105L0.585464 6.87738C0.519347 6.9097 0.460408 6.955 0.412156 7.01057C0.363904 7.06614 0.327325 7.13085 0.304595 7.20084C0.281865 7.27084 0.27345 7.3447 0.279849 7.41801C0.286249 7.49133 0.307333 7.56261 0.341847 7.62761C0.376361 7.69261 0.423598 7.75 0.480749 7.79637C0.537899 7.84274 0.603794 7.87714 0.674511 7.89752C0.745229 7.9179 0.819323 7.92384 0.892385 7.915C0.965447 7.90615 1.03598 7.8827 1.09979 7.84603L2.48849 7.1174V21.4514C2.4885 21.5969 2.54631 21.7364 2.64919 21.8393C2.75207 21.9422 2.89161 22 3.03711 22H21.6902C21.8357 22 21.9752 21.9422 22.0781 21.8393C22.181 21.7364 22.2388 21.5969 22.2388 21.4514V7.1174L23.6275 7.84603C23.6913 7.8827 23.7618 7.90615 23.8349 7.915C23.908 7.92384 23.9821 7.9179 24.0528 7.89752C24.1235 7.87714 24.1894 7.84274 24.2465 7.79637C24.3037 7.75 24.3509 7.69261 24.3854 7.62761C24.42 7.56261 24.441 7.49133 24.4474 7.41801C24.4538 7.3447 24.4454 7.27084 24.4227 7.20084C24.4 7.13085 24.3634 7.06614 24.3151 7.01057C24.2669 6.955 24.2079 6.9097 24.1418 6.87738L12.6208 0.0643105C12.521 0.0112297 12.4072 -0.00972725 12.2951 0.00430521ZM12.3636 1.17012L21.1416 6.54306V20.9028H3.58573V6.54306L12.3636 1.17012ZM8.14613 8.73754C7.31947 8.73754 6.60314 9.38126 6.60314 10.212V11.755H6.32883C6.31169 11.7541 6.29453 11.7541 6.27739 11.755C6.20534 11.7583 6.13465 11.7758 6.06937 11.8065C6.00409 11.8372 5.94549 11.8805 5.89692 11.9338C5.84835 11.9871 5.81077 12.0495 5.78631 12.1174C5.76185 12.1852 5.751 12.2572 5.75438 12.3293C5.75776 12.4013 5.7753 12.472 5.80599 12.5373C5.83669 12.6026 5.87995 12.6612 5.93329 12.7097C5.98664 12.7583 6.04902 12.7959 6.11689 12.8203C6.18475 12.8447 6.25677 12.8556 6.32883 12.8522H6.60314V14.3866C6.60314 15.2173 7.31947 15.8696 8.14613 15.8696H9.89485C10.0404 15.8696 10.1799 15.8118 10.2828 15.7089C10.3857 15.606 10.4435 15.4665 10.4435 15.321V12.8522H14.2838V15.321C14.2838 15.4665 14.3416 15.606 14.4445 15.7089C14.5474 15.8118 14.6869 15.8696 14.8324 15.8696H16.5812C17.4078 15.8696 18.1241 15.2173 18.1241 14.3866V12.8522H18.3985C18.4712 12.8532 18.5433 12.8398 18.6108 12.8127C18.6783 12.7856 18.7397 12.7453 18.7914 12.6943C18.8432 12.6432 18.8843 12.5824 18.9124 12.5153C18.9404 12.4483 18.9549 12.3763 18.9549 12.3036C18.9549 12.2309 18.9404 12.1589 18.9124 12.0918C18.8843 12.0247 18.8432 11.9639 18.7914 11.9129C18.7397 11.8618 18.6783 11.8216 18.6108 11.7945C18.5433 11.7674 18.4712 11.7539 18.3985 11.755H18.1241V10.212C18.1241 9.38126 17.4078 8.73754 16.5812 8.73754H14.8324C14.8153 8.73674 14.7981 8.73674 14.781 8.73754C14.6446 8.7504 14.5179 8.81382 14.4259 8.91535C14.3339 9.01687 14.2832 9.14915 14.2838 9.28616V11.755H10.4435V9.28616C10.4435 9.14066 10.3857 9.00113 10.2828 8.89824C10.1799 8.79536 10.0404 8.73756 9.89485 8.73754H8.14613ZM8.14613 9.83478H9.34623V14.7724H8.14613C7.86757 14.7724 7.70038 14.5846 7.70038 14.3866V10.212C7.70038 10.0139 7.86757 9.83478 8.14613 9.83478ZM15.3811 9.83478H16.5812C16.8597 9.83478 17.0269 10.0139 17.0269 10.212V14.3866C17.0269 14.5846 16.8597 14.7724 16.5812 14.7724H15.3811V9.83478Z" fill="black"/>
</svg>
