<svg width="27" height="24" viewBox="0 0 27 24" fill="none" xmlns="http://www.w3.org/2000/svg">
<path fill-rule="evenodd" clip-rule="evenodd" d="M20.8058 2.67964C21.0465 2.84042 21.3293 2.92623 21.6187 2.92623C22.0066 2.92582 22.3786 2.77154 22.6529 2.49723C22.9272 2.22293 23.0815 1.85101 23.0819 1.46308C23.0819 1.1737 22.9961 0.890817 22.8353 0.650204C22.6745 0.409592 22.446 0.222057 22.1786 0.111315C21.9113 0.000572956 21.6171 -0.0284022 21.3333 0.0280535C21.0495 0.0845093 20.7887 0.22386 20.5841 0.428485C20.3795 0.633109 20.2401 0.893817 20.1837 1.17764C20.1272 1.46146 20.1562 1.75565 20.267 2.02301C20.3777 2.29036 20.5652 2.51887 20.8058 2.67964ZM21.3513 1.06284C21.4304 1.00994 21.5235 0.98171 21.6187 0.98171C21.7463 0.981872 21.8687 1.03264 21.9589 1.12288C22.0492 1.21312 22.0999 1.33547 22.1001 1.46308C22.1001 1.55829 22.0719 1.65136 22.019 1.73052C21.9661 1.80968 21.8909 1.87138 21.8029 1.90782C21.715 1.94425 21.6182 1.95378 21.5248 1.93521C21.4314 1.91663 21.3457 1.87079 21.2783 1.80347C21.211 1.73615 21.1652 1.65037 21.1466 1.557C21.128 1.46362 21.1376 1.36683 21.174 1.27887C21.2104 1.19091 21.2721 1.11573 21.3513 1.06284ZM2.94483 9.57236L2.92948 9.57216H2.49172C2.32288 9.57216 2.16096 9.63923 2.04157 9.75862C1.92218 9.87801 1.85511 10.0399 1.85511 10.2088C1.85511 10.3776 1.92218 10.5395 2.04157 10.6589C2.16096 10.7783 2.32288 10.8454 2.49172 10.8454H24.781C24.9498 10.8454 25.1117 10.7783 25.2311 10.6589C25.3505 10.5395 25.4176 10.3776 25.4176 10.2088C25.4176 10.0399 25.3505 9.87801 25.2311 9.75862C25.1117 9.63923 24.9498 9.57216 24.781 9.57216H2.95651L2.94483 9.57236ZM17.1793 8.59039H3.64125C3.90263 8.19068 4.36123 7.92851 4.87002 7.92851C5.04069 7.92822 5.21011 7.9576 5.37072 8.01534C5.44765 8.04298 5.53026 8.05098 5.61106 8.03861C5.69186 8.02624 5.76829 7.99388 5.83342 7.94448C5.89854 7.89508 5.9503 7.8302 5.984 7.75572C6.01769 7.68125 6.03225 7.59954 6.02636 7.51801C6.02391 7.495 6.02391 7.46831 6.02391 7.43763C6.02391 6.65098 6.67709 6.01099 7.47999 6.01099C7.69843 6.01019 7.91427 6.05834 8.11167 6.15188C8.30906 6.24543 8.48299 6.38201 8.62069 6.55158C8.67373 6.6169 8.74266 6.66749 8.82088 6.6985C8.89911 6.7295 8.98398 6.73988 9.06737 6.72864C9.15076 6.7174 9.22986 6.68491 9.29707 6.63429C9.36429 6.58368 9.41736 6.51663 9.45121 6.4396C9.55692 6.20651 9.72168 6.00508 9.92917 5.85523C10.1367 5.70539 10.3797 5.61233 10.6342 5.58527C10.8887 5.55821 11.1459 5.59809 11.3802 5.70096C11.6146 5.80382 11.818 5.96611 11.9704 6.17176C12.0133 6.23031 12.0687 6.2786 12.1326 6.31315C12.1965 6.3477 12.2672 6.36764 12.3398 6.37155C12.4123 6.37545 12.4848 6.36321 12.552 6.33572C12.6192 6.30823 12.6795 6.26616 12.7285 6.21256C12.8666 6.06219 13.0345 5.94219 13.2214 5.86016C13.4084 5.77814 13.6104 5.73589 13.8146 5.7361C14.5671 5.7361 15.2035 6.31074 15.2648 7.0443C15.275 7.16735 15.3312 7.28204 15.4222 7.36552C15.5131 7.44899 15.6322 7.49511 15.7557 7.49469H15.7726C16.4548 7.49889 17.0272 7.96554 17.1793 8.59039ZM16.1726 6.54759C17.2138 6.72232 18.0321 7.55172 18.1776 8.59039H24.781C25.2102 8.59039 25.6218 8.7609 25.9253 9.0644C26.2289 9.36791 26.3994 9.77955 26.3994 10.2088C26.3994 10.638 26.2289 11.0496 25.9253 11.3531C25.6218 11.6567 25.2102 11.8272 24.781 11.8272H24.0678V20.6552C24.0668 21.5419 23.7142 22.392 23.0873 23.019C22.4604 23.6461 21.6103 23.9988 20.7237 24H6.54935C5.66277 23.9988 4.81283 23.6461 4.18593 23.0192C3.55902 22.3923 3.20633 21.5424 3.20519 20.6558V11.8272H2.49172C2.0625 11.8272 1.65086 11.6567 1.34735 11.3531C1.04384 11.0496 0.873337 10.638 0.873337 10.2088C0.873337 9.77955 1.04384 9.36791 1.34735 9.0644C1.65086 8.7609 2.0625 8.59039 2.49172 8.59039H2.56002C2.69751 8.18526 2.94182 7.8216 3.27066 7.53979C3.71626 7.15724 4.28427 6.94715 4.87155 6.94766C4.94549 6.94766 5.01943 6.95104 5.09245 6.95748C5.31887 5.85912 6.30402 5.03014 7.48153 5.03014C7.99028 5.02901 8.48672 5.18656 8.90172 5.48084C9.11117 5.22935 9.36875 5.02225 9.65935 4.87169C9.94994 4.72113 10.2677 4.63014 10.5939 4.60408C10.9202 4.57801 11.2483 4.61739 11.5591 4.7199C11.87 4.82241 12.1572 4.98599 12.4039 5.20103C12.8608 4.88055 13.4132 4.72504 13.9703 4.76005C14.5273 4.79506 15.0559 5.01852 15.4691 5.3937C15.8096 5.70281 16.0538 6.10339 16.1726 6.54759ZM4.18696 20.6552V11.8273H23.086V20.6552C23.0851 21.2815 22.836 21.8818 22.3931 22.3247C21.9503 22.7675 21.3499 23.0167 20.7237 23.0176H6.54935C5.92308 23.0167 5.32271 22.7675 4.87988 22.3247C4.43704 21.8818 4.18786 21.2815 4.18696 20.6552ZM6.58616 20.7969C6.82677 20.9577 7.10966 21.0435 7.39904 21.0435C7.78694 21.043 8.15881 20.8887 8.4331 20.6144C8.70739 20.3402 8.8617 19.9683 8.86218 19.5804C8.86218 19.291 8.77637 19.0081 8.6156 18.7675C8.45483 18.5269 8.22631 18.3394 7.95896 18.2286C7.6916 18.1179 7.39742 18.0889 7.11359 18.1453C6.82977 18.2018 6.56906 18.3412 6.36444 18.5458C6.15981 18.7504 6.02046 19.0111 5.96401 19.2949C5.90755 19.5788 5.93653 19.8729 6.04727 20.1403C6.15801 20.4077 6.34555 20.6362 6.58616 20.7969ZM7.1316 19.1801C7.21076 19.1272 7.30383 19.099 7.39904 19.099C7.52666 19.0992 7.649 19.1499 7.73924 19.2402C7.82948 19.3304 7.88025 19.4528 7.88041 19.5804C7.88041 19.6756 7.85218 19.7687 7.79929 19.8478C7.74639 19.927 7.67121 19.9887 7.58325 20.0251C7.49529 20.0615 7.3985 20.0711 7.30513 20.0525C7.21175 20.0339 7.12598 19.9881 7.05866 19.9208C6.99133 19.8534 6.94549 19.7677 6.92691 19.6743C6.90834 19.5809 6.91787 19.4841 6.95431 19.3962C6.99074 19.3082 7.05244 19.233 7.1316 19.1801ZM9.01761 16.155C8.72823 16.155 8.44535 16.0692 8.20473 15.9084C7.96412 15.7476 7.77659 15.5191 7.66585 15.2517C7.5551 14.9844 7.52613 14.6902 7.58258 14.4064C7.63904 14.1226 7.77839 13.8618 7.98302 13.6572C8.18764 13.4526 8.44835 13.3133 8.73217 13.2568C9.01599 13.2003 9.31018 13.2293 9.57753 13.3401C9.84489 13.4508 10.0734 13.6383 10.2342 13.8789C10.3949 14.1196 10.4808 14.4024 10.4808 14.6918C10.4804 15.0798 10.3261 15.4517 10.0518 15.726C9.77746 16.0003 9.40554 16.1546 9.01761 16.155ZM9.01761 14.2105C8.92241 14.2105 8.82934 14.2387 8.75018 14.2916C8.67102 14.3445 8.60932 14.4197 8.57288 14.5076C8.53645 14.5956 8.52692 14.6924 8.54549 14.7857C8.56406 14.8791 8.60991 14.9649 8.67723 15.0322C8.74455 15.0995 8.83033 15.1454 8.9237 15.164C9.01708 15.1825 9.11387 15.173 9.20183 15.1366C9.28979 15.1001 9.36497 15.0384 9.41786 14.9593C9.47076 14.8801 9.49899 14.787 9.49899 14.6918C9.49883 14.5642 9.44806 14.4419 9.35782 14.3516C9.26758 14.2614 9.14523 14.2106 9.01761 14.2105ZM11.6773 19.3474C11.918 19.5082 12.2008 19.594 12.4902 19.594C12.8781 19.5935 13.25 19.4392 13.5243 19.1649C13.7986 18.8906 13.9529 18.5188 13.9534 18.1309C13.9534 17.8415 13.8676 17.5586 13.7068 17.318C13.546 17.0774 13.3175 16.8898 13.0501 16.7791C12.7828 16.6684 12.4886 16.6394 12.2048 16.6958C11.921 16.7523 11.6602 16.8916 11.4556 17.0963C11.251 17.3009 11.1116 17.5616 11.0552 17.8454C10.9987 18.1292 11.0277 18.4234 11.1385 18.6908C11.2492 18.9581 11.4367 19.1867 11.6773 19.3474ZM12.2228 17.7306C12.3019 17.6777 12.395 17.6495 12.4902 17.6495C12.6178 17.6497 12.7402 17.7004 12.8304 17.7907C12.9207 17.8809 12.9714 18.0033 12.9716 18.1309C12.9716 18.2261 12.9434 18.3191 12.8905 18.3983C12.8376 18.4775 12.7624 18.5392 12.6744 18.5756C12.5865 18.612 12.4897 18.6216 12.3963 18.603C12.3029 18.5844 12.2172 18.5386 12.1498 18.4713C12.0825 18.4039 12.0367 18.3182 12.0181 18.2248C11.9995 18.1314 12.0091 18.0346 12.0455 17.9467C12.0819 17.8587 12.1436 17.7835 12.2228 17.7306ZM16.6707 21.6166C16.3813 21.6166 16.0984 21.5308 15.8578 21.37C15.6172 21.2093 15.4297 20.9807 15.3189 20.7134C15.2082 20.446 15.1792 20.1518 15.2357 19.868C15.2921 19.5842 15.4315 19.3235 15.6361 19.1189C15.8407 18.9142 16.1014 18.7749 16.3852 18.7184C16.6691 18.662 16.9632 18.691 17.2306 18.8017C17.498 18.9124 17.7265 19.1 17.8872 19.3406C18.048 19.5812 18.1338 19.8641 18.1338 20.1535C18.1333 20.5414 17.979 20.9132 17.7047 21.1875C17.4305 21.4618 17.0586 21.6161 16.6707 21.6166ZM16.6707 19.6721C16.5755 19.6721 16.4824 19.7003 16.4032 19.7532C16.3241 19.8061 16.2624 19.8813 16.226 19.9693C16.1895 20.0572 16.18 20.154 16.1986 20.2474C16.2171 20.3408 16.263 20.4265 16.3303 20.4939C16.3976 20.5612 16.4834 20.607 16.5768 20.6256C16.6701 20.6442 16.7669 20.6346 16.8549 20.5982C16.9429 20.5618 17.018 20.5001 17.0709 20.4209C17.1238 20.3417 17.1521 20.2487 17.1521 20.1535C17.1519 20.0259 17.1011 19.9035 17.0109 19.8133C16.9206 19.723 16.7983 19.6723 16.6707 19.6721ZM14.7116 16.3132C14.9522 16.4739 15.2351 16.5597 15.5245 16.5597C15.9124 16.5592 16.2843 16.4049 16.5586 16.1307C16.8328 15.8564 16.9872 15.4845 16.9876 15.0966C16.9876 14.8072 16.9018 14.5243 16.7411 14.2837C16.5803 14.0431 16.3518 13.8556 16.0844 13.7448C15.8171 13.6341 15.5229 13.6051 15.2391 13.6616C14.9552 13.718 14.6945 13.8574 14.4899 14.062C14.2853 14.2666 14.1459 14.5273 14.0895 14.8111C14.033 15.095 14.062 15.3892 14.1727 15.6565C14.2835 15.9239 14.471 16.1524 14.7116 16.3132ZM15.2571 14.6963C15.3362 14.6434 15.4293 14.6152 15.5245 14.6152C15.6521 14.6154 15.7745 14.6661 15.8647 14.7564C15.9549 14.8466 16.0057 14.969 16.0059 15.0966C16.0059 15.1918 15.9776 15.2849 15.9247 15.364C15.8719 15.4432 15.7967 15.5049 15.7087 15.5413C15.6208 15.5778 15.524 15.5873 15.4306 15.5687C15.3372 15.5501 15.2514 15.5043 15.1841 15.437C15.1168 15.3697 15.0709 15.2839 15.0524 15.1905C15.0338 15.0971 15.0433 15.0003 15.0798 14.9124C15.1162 14.8244 15.1779 14.7492 15.2571 14.6963ZM19.8735 19.2904C19.5841 19.2904 19.3012 19.2045 19.0607 19.0437C18.8201 18.8829 18.6326 18.6544 18.5219 18.387C18.4112 18.1196 18.3823 17.8255 18.4388 17.5417C18.4953 17.2579 18.6346 16.9972 18.8393 16.7926C19.0439 16.588 19.3046 16.4487 19.5884 16.3922C19.8723 16.3358 20.1664 16.3648 20.4338 16.4756C20.7011 16.5863 20.9296 16.7738 21.0904 17.0144C21.2511 17.2551 21.3369 17.5379 21.3369 17.8273C21.3364 18.2152 21.1821 18.5872 20.9077 18.8615C20.6334 19.1358 20.2614 19.29 19.8735 19.2904ZM19.8735 17.3459C19.7783 17.346 19.6852 17.3743 19.6061 17.4272C19.527 17.4801 19.4653 17.5553 19.429 17.6433C19.3926 17.7313 19.3831 17.828 19.4017 17.9214C19.4203 18.0147 19.4662 18.1005 19.5335 18.1678C19.6008 18.2351 19.6866 18.2809 19.78 18.2994C19.8733 18.318 19.9701 18.3084 20.0581 18.272C20.146 18.2355 20.2212 18.1739 20.274 18.0947C20.3269 18.0155 20.3552 17.9225 20.3552 17.8273C20.355 17.6996 20.3042 17.5772 20.2139 17.487C20.1236 17.3967 20.0011 17.346 19.8735 17.3459ZM17.4501 4.98413C17.1607 4.98413 16.8778 4.89831 16.6372 4.73754C16.3966 4.57677 16.2091 4.34826 16.0983 4.0809C15.9876 3.81355 15.9586 3.51936 16.0151 3.23554C16.0715 2.95171 16.2109 2.69101 16.4155 2.48638C16.6201 2.28176 16.8808 2.14241 17.1647 2.08595C17.4485 2.0295 17.7427 2.05847 18.01 2.16921C18.2774 2.27995 18.5059 2.46749 18.6667 2.7081C18.8274 2.94871 18.9133 3.2316 18.9133 3.52098C18.9128 3.90888 18.7585 4.28076 18.4842 4.55504C18.2099 4.82933 17.838 4.98364 17.4501 4.98413ZM17.4501 3.03991C17.3549 3.03991 17.2618 3.06815 17.1826 3.12106C17.1035 3.17397 17.0418 3.24917 17.0053 3.33715C16.9689 3.42512 16.9594 3.52193 16.978 3.61531C16.9966 3.7087 17.0425 3.79447 17.1098 3.86178C17.1772 3.92909 17.263 3.97491 17.3564 3.99345C17.4498 4.01199 17.5466 4.00241 17.6345 3.96593C17.7225 3.92945 17.7976 3.8677 17.8505 3.7885C17.9034 3.7093 17.9315 3.6162 17.9315 3.52098C17.931 3.3936 17.8801 3.27161 17.7899 3.18168C17.6996 3.09175 17.5775 3.04122 17.4501 3.04114V3.03991ZM20.9228 7.30461C21.1634 7.46538 21.4463 7.55119 21.7357 7.55119C22.1236 7.5507 22.4955 7.39639 22.7698 7.12211C23.0441 6.84782 23.1984 6.47595 23.1989 6.08805C23.1989 5.79866 23.113 5.51578 22.9523 5.27517C22.7915 5.03455 22.563 4.84702 22.2956 4.73628C22.0283 4.62554 21.7341 4.59656 21.4503 4.65302C21.1664 4.70947 20.9057 4.84882 20.7011 5.05345C20.4965 5.25807 20.3571 5.51878 20.3007 5.8026C20.2442 6.08642 20.2732 6.38061 20.3839 6.64797C20.4947 6.91532 20.6822 7.14384 20.9228 7.30461ZM21.4683 5.6878C21.5474 5.6349 21.6405 5.60667 21.7357 5.60667V5.6079C21.8631 5.60806 21.9853 5.65866 22.0755 5.74864C22.1657 5.83861 22.2166 5.96064 22.2171 6.08805C22.2171 6.18325 22.1888 6.27632 22.136 6.35548C22.0831 6.43465 22.0079 6.49634 21.9199 6.53278C21.832 6.56921 21.7352 6.57875 21.6418 6.56017C21.5484 6.5416 21.4626 6.49575 21.3953 6.42843C21.328 6.36111 21.2822 6.27534 21.2636 6.18196C21.245 6.08858 21.2545 5.99179 21.291 5.90383C21.3274 5.81587 21.3891 5.74069 21.4683 5.6878Z" fill="black"/>
</svg>
