<svg width="25" height="22" viewBox="0 0 25 22" fill="none" xmlns="http://www.w3.org/2000/svg">
<path d="M12.8405 0.00430521C12.7745 0.0127108 12.7106 0.0330432 12.6519 0.0643105L1.13088 6.87738C1.06476 6.9097 1.00582 6.955 0.95757 7.01057C0.909318 7.06614 0.872739 7.13085 0.850009 7.20084C0.827279 7.27084 0.818864 7.3447 0.825263 7.41801C0.831663 7.49133 0.852747 7.56261 0.887261 7.62761C0.921775 7.69261 0.969012 7.75 1.02616 7.79637C1.08331 7.84274 1.14921 7.87714 1.21993 7.89752C1.29064 7.9179 1.36474 7.92384 1.4378 7.915C1.51086 7.90615 1.5814 7.8827 1.64521 7.84603L3.0339 7.1174V21.4514C3.03392 21.5969 3.09172 21.7364 3.19461 21.8393C3.29749 21.9422 3.43702 22 3.58252 22H22.2356C22.3811 22 22.5206 21.9422 22.6235 21.8393C22.7264 21.7364 22.7842 21.5969 22.7842 21.4514V7.1174L24.1729 7.84603C24.2367 7.8827 24.3072 7.90615 24.3803 7.915C24.4534 7.92384 24.5275 7.9179 24.5982 7.89752C24.6689 7.87714 24.7348 7.84274 24.792 7.79637C24.8491 7.75 24.8963 7.69261 24.9309 7.62761C24.9654 7.56261 24.9865 7.49133 24.9928 7.41801C24.9992 7.3447 24.9908 7.27084 24.9681 7.20084C24.9454 7.13085 24.9088 7.06614 24.8605 7.01057C24.8123 6.955 24.7534 6.9097 24.6872 6.87738L13.1662 0.0643105C13.0664 0.0112297 12.9527 -0.00972725 12.8405 0.00430521ZM12.9091 1.17012L21.687 6.54306V20.9028H4.13114V6.54306L12.9091 1.17012Z" fill="black"/>
<path d="M18.8963 17.2858C18.843 17.1621 18.7097 17.1072 18.6031 17.1621C18.5365 17.1896 18.4565 17.2308 18.3899 17.2583C18.1234 17.3819 17.8835 17.5056 17.3771 17.5056C16.8708 17.5056 16.6309 17.3819 16.3644 17.2583C16.0845 17.1209 15.7647 16.9561 15.1517 16.9561C15.0052 16.9561 14.8852 16.9698 14.7653 16.9836V9.4149C14.7653 8.89292 15.1784 8.45336 15.6981 8.45336C15.938 8.45336 16.1778 8.54951 16.3511 8.72808C16.5243 8.90665 16.6176 9.15391 16.6176 9.40116V10.1154C16.6176 10.2391 16.7242 10.349 16.8441 10.349C16.964 10.349 17.0707 10.2391 17.0707 10.1154V9.4149C17.0707 9.04402 16.9241 8.67314 16.6709 8.41215C16.4177 8.15116 16.0579 8.00006 15.6981 8.00006C14.9385 8.00006 14.3122 8.63193 14.3122 9.42863V12.4231H9.66156V9.4149C9.66156 8.89292 10.0747 8.45336 10.5944 8.45336C10.8342 8.45336 11.0741 8.54951 11.2473 8.72808C11.4205 8.90665 11.5138 9.15391 11.5138 9.40116V10.1154C11.5138 10.2391 11.6204 10.349 11.7404 10.349C11.8603 10.349 11.9669 10.2391 11.9669 10.1154V9.4149C11.9669 9.04402 11.8203 8.67314 11.5671 8.41215C11.3139 8.15116 10.9541 8.00006 10.5944 8.00006C9.83479 8.00006 9.20848 8.63193 9.20848 9.42863V17.3957C9.02192 17.4781 8.79538 17.533 8.44892 17.533C7.94254 17.533 7.70268 17.4094 7.43616 17.2858C7.36953 17.2583 7.3029 17.2171 7.22295 17.1896C7.10302 17.1347 6.96976 17.1896 6.92978 17.3132C6.87648 17.4369 6.92978 17.5742 7.04972 17.6154C7.11634 17.6429 7.18297 17.6704 7.23628 17.7116C7.51612 17.849 7.83593 18.0001 8.43559 18.0001C9.04857 18.0001 9.36839 17.8352 9.64823 17.6979C9.92807 17.5605 10.1546 17.4506 10.661 17.4506C11.1674 17.4506 11.4072 17.5742 11.6737 17.6979C11.9536 17.8352 12.2734 18.0001 12.8864 18.0001C13.4994 18.0001 13.8192 17.8352 14.099 17.6979C14.3789 17.5605 14.6054 17.4506 15.1118 17.4506C15.6181 17.4506 15.858 17.5742 16.1245 17.6979C16.4044 17.8352 16.7242 18.0001 17.3372 18.0001C17.9501 18.0001 18.2566 17.849 18.5498 17.7116C18.6164 17.6841 18.6697 17.6567 18.7364 17.6154C18.8829 17.5468 18.9362 17.4094 18.8963 17.2858ZM14.2989 12.8764V14.7858H9.66156V12.8764H14.2989ZM13.9258 17.2583C13.6459 17.3957 13.4194 17.5056 12.913 17.5056C12.4067 17.5056 12.1668 17.3819 11.9003 17.2583C11.6204 17.1209 11.3006 16.9561 10.6876 16.9561C10.2079 16.9561 9.91474 17.0523 9.67488 17.1621V15.2391H14.3122V17.0385C14.3122 17.0523 14.3122 17.066 14.3256 17.0797C14.1656 17.1484 14.0457 17.2034 13.9258 17.2583Z" fill="black" stroke="black" stroke-width="0.4"/>
</svg>
