<svg width="25" height="22" viewBox="0 0 25 22" fill="none" xmlns="http://www.w3.org/2000/svg">
<path fill-rule="evenodd" clip-rule="evenodd" d="M5.95148 1.67629V1.13847C5.95148 0.509605 6.45205 0 7.06948 0H8.02691C8.64433 0 9.14491 0.509605 9.14491 1.13847V2.32435H15.2186V1.13847C15.2186 0.509605 15.7192 0 16.3366 0H17.294C17.9115 0 18.412 0.509605 18.412 1.13847V1.67629H18.6761C19.5878 1.67629 20.3266 2.42877 20.3266 3.35665V3.5047H20.3503C21.6329 3.5047 22.6723 4.56289 22.6723 5.86861V20.8615H23.6226C23.9312 20.8615 24.1818 21.1166 24.1818 21.4308C24.1818 21.7449 23.9312 22 23.6226 22H0.740906C0.432334 22 0.181763 21.7449 0.181763 21.4308C0.181763 21.1166 0.432334 20.8615 0.740906 20.8615H1.69119V5.86861C1.69119 4.56289 2.73062 3.5047 4.01319 3.5047H4.03691V3.35665C4.03691 2.42877 4.77576 1.67629 5.68748 1.67629H5.95148ZM4.03691 4.64288H4.01319C3.34833 4.64288 2.80919 5.19175 2.80919 5.86861V20.8615H8.22091V13.2029C8.22091 11.5441 9.54176 10.1991 11.1712 10.1991H13.4898C15.1192 10.1991 16.4403 11.5441 16.4403 13.2029V20.8615H15.02H16.1383C17.896 20.8615 18.4069 20.8615 19.0246 20.8615C19.642 20.8615 18.833 20.8549 20.1426 20.8615H21.5543V5.86861C21.5543 5.19175 21.0152 4.64288 20.3503 4.64288H20.3266V4.66033C20.3266 5.5885 19.5878 6.34069 18.6761 6.34069H18.412V6.87851C18.412 7.50737 17.9115 8.01698 17.294 8.01698H16.3366C15.7192 8.01698 15.2186 7.50737 15.2186 6.87851V5.69263H9.14491V6.87851C9.14491 7.50737 8.64433 8.01698 8.02691 8.01698H7.06948C6.45205 8.01698 5.95148 7.50737 5.95148 6.87851V6.34069H5.68748C4.77576 6.34069 4.03691 5.5885 4.03691 4.66033V4.64288ZM15.322 20.8615V13.2029C15.322 12.1726 14.5018 11.3376 13.4898 11.3376H11.1712C10.1595 11.3376 9.33891 12.1726 9.33891 13.2029V20.8615H15.322ZM19.0246 20.8615H20.1426H15.02H16.1383H19.0246ZM13.7678 16.0668C14.0763 16.0668 14.3269 16.3219 14.3269 16.6361C14.3269 16.9502 14.0763 17.205 13.7678 17.205C13.4592 17.205 13.2086 16.9502 13.2086 16.6361C13.2086 16.3219 13.4592 16.0668 13.7678 16.0668ZM8.02691 1.13847H7.06948V6.87851H8.02691V1.13847ZM16.3366 1.13847H17.294V6.87851H16.3366V1.13847ZM5.95148 2.81476H5.68748C5.39348 2.81476 5.15491 3.05734 5.15491 3.35665V4.66033C5.15491 4.95963 5.39348 5.20222 5.68748 5.20222H5.95148V2.81476ZM18.412 2.81476V5.20222H18.6761C18.9701 5.20222 19.2086 4.95963 19.2086 4.66033V3.35665C19.2086 3.05734 18.9701 2.81476 18.6761 2.81476H18.412ZM9.14491 3.46281V4.55416H15.2186V3.46281H9.14491Z" fill="black"/>
</svg>
