<svg width="14" height="9" viewBox="0 0 14 9" fill="none" xmlns="http://www.w3.org/2000/svg">
<path opacity="0.3" fill-rule="evenodd" clip-rule="evenodd" d="M10.3818 4.50013C10.3818 6.38801 8.86646 7.91875 6.9973 7.91875C5.12807 7.91875 3.61283 6.38814 3.61283 4.50013C3.61283 2.61203 5.12814 1.08151 6.9973 1.08151C8.86633 1.08141 10.3818 2.61179 10.3818 4.50013ZM6.9973 6.36268C8.01591 6.36268 8.84167 5.5289 8.84167 4.50002C8.84167 4.35102 8.82399 4.20587 8.79161 4.06704L6.93511 4.556L7.82748 2.83622C7.57799 2.70892 7.29603 2.63738 6.99761 2.63738C5.97901 2.63738 5.15356 3.47115 5.15356 4.50004C5.15356 5.52902 5.9787 6.36268 6.9973 6.36268ZM6.86737 8.99755C10.0661 9.07875 12.41 7.13293 14 4.5C12.4102 1.8672 10.0663 -0.07863 6.86737 0.00244292C3.83395 0.0799034 1.48789 1.9432 0 4.5C1.48787 7.05698 3.83368 8.9202 6.86737 8.99755Z" fill="#F1F1F1"/>
</svg>
