<svg width="205" height="24" viewBox="0 0 205 24" fill="none" xmlns="http://www.w3.org/2000/svg">
<path d="M5.12 23L0.864 0.952H4.032L7.456 20.216H8.32L12.48 1.144H16.032L20.192 20.216H21.056L24.448 0.952H27.616L23.36 23H18.08L14.048 3.8H14.432L10.4 23H5.12ZM36.532 23.32C34.8893 23.32 33.588 23.0213 32.628 22.424C31.6893 21.8053 31.0067 20.888 30.58 19.672C30.1533 18.456 29.94 16.9307 29.94 15.096C29.94 13.0907 30.2173 11.4693 30.772 10.232C31.348 8.99467 32.148 8.088 33.172 7.512C34.196 6.936 35.4227 6.648 36.852 6.648C39.0493 6.648 40.7027 7.24533 41.812 8.44C42.9427 9.61333 43.508 11.512 43.508 14.136L43.348 16.152H32.98C33.0013 17.688 33.2893 18.8507 33.844 19.64C34.3987 20.408 35.4013 20.792 36.852 20.792C37.4707 20.792 38.1427 20.7813 38.868 20.76C39.6147 20.7173 40.3507 20.6747 41.076 20.632C41.8013 20.5893 42.42 20.5467 42.932 20.504L42.996 22.744C42.4627 22.8293 41.8227 22.9147 41.076 23C40.3293 23.1067 39.5507 23.1813 38.74 23.224C37.9507 23.288 37.2147 23.32 36.532 23.32ZM32.98 13.944H40.532C40.532 12.1307 40.2333 10.8613 39.636 10.136C39.06 9.41067 38.132 9.048 36.852 9.048C35.5933 9.048 34.6333 9.42133 33.972 10.168C33.3107 10.9147 32.98 12.1733 32.98 13.944ZM47.1485 23V0.151999H50.0925V23H47.1485ZM60.6935 23.32C58.9655 23.32 57.6108 23.0427 56.6295 22.488C55.6482 21.912 54.9548 20.9947 54.5495 19.736C54.1442 18.4773 53.9415 16.824 53.9415 14.776C53.9415 12.792 54.1655 11.2133 54.6135 10.04C55.0615 8.84533 55.7868 7.98133 56.7895 7.448C57.7922 6.91467 59.1042 6.648 60.7255 6.648C61.1095 6.648 61.5682 6.68 62.1015 6.744C62.6562 6.78667 63.2108 6.85067 63.7655 6.936C64.3415 7.02133 64.8322 7.096 65.2375 7.16L65.1415 9.592C64.7788 9.54933 64.3522 9.50667 63.8615 9.464C63.3708 9.42133 62.9015 9.38933 62.4535 9.368C62.0055 9.32533 61.6322 9.304 61.3335 9.304C60.1815 9.304 59.2855 9.48533 58.6455 9.848C58.0268 10.2107 57.5895 10.7867 57.3335 11.576C57.0988 12.3653 56.9815 13.432 56.9815 14.776C56.9815 16.2267 57.0882 17.3893 57.3015 18.264C57.5362 19.1173 57.9628 19.736 58.5815 20.12C59.2002 20.4827 60.1175 20.664 61.3335 20.664C61.6322 20.664 62.0055 20.6533 62.4535 20.632C62.9228 20.5893 63.4028 20.5467 63.8935 20.504C64.4055 20.4613 64.8428 20.4293 65.2055 20.408L65.3015 22.84C64.8748 22.904 64.3735 22.968 63.7975 23.032C63.2428 23.1173 62.6882 23.1813 62.1335 23.224C61.5788 23.288 61.0988 23.32 60.6935 23.32ZM75.012 23.32C73.22 23.32 71.812 23.0213 70.788 22.424C69.764 21.8053 69.0387 20.8667 68.612 19.608C68.1853 18.3493 67.972 16.7493 67.972 14.808C67.972 12.952 68.196 11.4267 68.644 10.232C69.1133 9.03733 69.86 8.14133 70.884 7.544C71.9293 6.94667 73.3053 6.648 75.012 6.648C76.74 6.648 78.116 6.94667 79.14 7.544C80.164 8.14133 80.9 9.03733 81.348 10.232C81.8173 11.4267 82.052 12.952 82.052 14.808C82.052 16.7493 81.8387 18.3493 81.412 19.608C81.0067 20.8667 80.292 21.8053 79.268 22.424C78.244 23.0213 76.8253 23.32 75.012 23.32ZM75.012 20.792C76.1427 20.792 76.996 20.5893 77.572 20.184C78.148 19.7787 78.532 19.1387 78.724 18.264C78.916 17.368 79.012 16.216 79.012 14.808C79.012 13.4213 78.8947 12.3227 78.66 11.512C78.4253 10.68 78.02 10.0827 77.444 9.72C76.868 9.35733 76.0573 9.176 75.012 9.176C73.988 9.176 73.1773 9.35733 72.58 9.72C72.004 10.0827 71.5987 10.68 71.364 11.512C71.1293 12.3227 71.012 13.4213 71.012 14.808C71.012 16.216 71.108 17.368 71.3 18.264C71.492 19.1387 71.8653 19.7787 72.42 20.184C72.996 20.5893 73.86 20.792 75.012 20.792ZM85.7065 23V6.968H88.6825V8.088C89.1732 7.78933 89.8452 7.48 90.6985 7.16C91.5732 6.81867 92.4158 6.648 93.2265 6.648C94.2718 6.648 95.1145 6.776 95.7545 7.032C96.3945 7.288 96.9172 7.704 97.3225 8.28C97.7278 8.04533 98.2292 7.8 98.8265 7.544C99.4452 7.288 100.107 7.07467 100.811 6.904C101.515 6.73333 102.208 6.648 102.891 6.648C104.363 6.648 105.493 6.904 106.283 7.416C107.093 7.928 107.648 8.77067 107.947 9.944C108.245 11.096 108.395 12.632 108.395 14.552V23H105.451V14.744C105.451 13.4213 105.376 12.3653 105.227 11.576C105.077 10.7867 104.779 10.2107 104.331 9.848C103.904 9.48533 103.243 9.304 102.347 9.304C101.557 9.304 100.779 9.42133 100.01 9.656C99.2638 9.89067 98.6772 10.1253 98.2505 10.36C98.3998 10.872 98.4958 11.5333 98.5385 12.344C98.6025 13.1333 98.6345 13.944 98.6345 14.776V23H95.6585V14.84C95.6585 13.4747 95.5838 12.3973 95.4345 11.608C95.3065 10.7973 95.0185 10.2107 94.5705 9.848C94.1225 9.48533 93.4612 9.304 92.5865 9.304C91.8398 9.304 91.0932 9.42133 90.3465 9.656C89.6212 9.89067 89.0665 10.1253 88.6825 10.36V23H85.7065ZM118.438 23.32C116.796 23.32 115.494 23.0213 114.534 22.424C113.596 21.8053 112.913 20.888 112.486 19.672C112.06 18.456 111.846 16.9307 111.846 15.096C111.846 13.0907 112.124 11.4693 112.678 10.232C113.254 8.99467 114.054 8.088 115.078 7.512C116.102 6.936 117.329 6.648 118.758 6.648C120.956 6.648 122.609 7.24533 123.718 8.44C124.849 9.61333 125.414 11.512 125.414 14.136L125.254 16.152H114.886C114.908 17.688 115.196 18.8507 115.75 19.64C116.305 20.408 117.308 20.792 118.758 20.792C119.377 20.792 120.049 20.7813 120.774 20.76C121.521 20.7173 122.257 20.6747 122.982 20.632C123.708 20.5893 124.326 20.5467 124.838 20.504L124.902 22.744C124.369 22.8293 123.729 22.9147 122.982 23C122.236 23.1067 121.457 23.1813 120.646 23.224C119.857 23.288 119.121 23.32 118.438 23.32ZM114.886 13.944H122.438C122.438 12.1307 122.14 10.8613 121.542 10.136C120.966 9.41067 120.038 9.048 118.758 9.048C117.5 9.048 116.54 9.42133 115.878 10.168C115.217 10.9147 114.886 12.1733 114.886 13.944ZM136.215 23V0.952H144.471C145.921 0.952 147.137 1.144 148.119 1.528C149.121 1.912 149.879 2.52 150.391 3.352C150.924 4.16267 151.191 5.22933 151.191 6.552C151.191 7.49067 151.084 8.28 150.871 8.92C150.657 9.56 150.348 10.104 149.943 10.552C149.559 10.9787 149.068 11.3413 148.471 11.64C149.111 11.8747 149.687 12.1947 150.199 12.6C150.711 12.984 151.105 13.5173 151.383 14.2C151.681 14.8827 151.831 15.7467 151.831 16.792C151.831 17.9653 151.66 18.9573 151.319 19.768C150.999 20.5573 150.529 21.1867 149.911 21.656C149.292 22.1253 148.545 22.4667 147.671 22.68C146.817 22.8933 145.868 23 144.823 23H136.215ZM139.287 20.472H144.663C145.516 20.472 146.241 20.3653 146.839 20.152C147.457 19.9173 147.937 19.5333 148.279 19C148.62 18.4453 148.791 17.6667 148.791 16.664C148.791 15.8747 148.641 15.2453 148.343 14.776C148.065 14.2853 147.703 13.9227 147.255 13.688C146.828 13.432 146.369 13.2613 145.879 13.176C145.409 13.0907 144.961 13.048 144.535 13.048H139.287V20.472ZM139.287 10.552H144.503C145.804 10.552 146.732 10.2533 147.287 9.656C147.863 9.03733 148.151 8.10933 148.151 6.872C148.151 5.69867 147.831 4.84533 147.191 4.312C146.572 3.75733 145.612 3.48 144.311 3.48H139.287V10.552ZM159.199 23.32C157.684 23.32 156.532 22.904 155.743 22.072C154.954 21.24 154.559 20.0133 154.559 18.392C154.559 17.304 154.751 16.4293 155.135 15.768C155.519 15.0853 156.084 14.5733 156.831 14.232C157.599 13.8907 158.548 13.688 159.679 13.624L164.319 13.176V11.928C164.319 10.9253 164.095 10.2213 163.647 9.816C163.199 9.38933 162.527 9.176 161.631 9.176C161.076 9.176 160.426 9.19733 159.679 9.24C158.932 9.28267 158.196 9.336 157.471 9.4C156.746 9.464 156.095 9.528 155.519 9.592L155.391 7.416C155.924 7.288 156.554 7.17067 157.279 7.064C158.026 6.95733 158.804 6.86133 159.615 6.776C160.426 6.69067 161.172 6.648 161.855 6.648C163.114 6.648 164.148 6.82933 164.959 7.192C165.77 7.55467 166.367 8.12 166.751 8.888C167.135 9.656 167.327 10.648 167.327 11.864V19.736C167.37 20.1627 167.54 20.4827 167.839 20.696C168.159 20.888 168.554 21.016 169.023 21.08L168.927 23.288C168.458 23.288 168.01 23.2667 167.583 23.224C167.178 23.2027 166.804 23.1387 166.463 23.032C166.122 22.9467 165.812 22.8293 165.535 22.68C165.279 22.5093 165.034 22.3173 164.799 22.104C164.415 22.2747 163.914 22.456 163.295 22.648C162.676 22.84 162.015 23 161.311 23.128C160.607 23.256 159.903 23.32 159.199 23.32ZM159.807 20.952C160.34 20.952 160.884 20.8987 161.439 20.792C162.015 20.6853 162.559 20.568 163.071 20.44C163.583 20.2907 163.999 20.1627 164.319 20.056V15.256L160.063 15.672C159.167 15.736 158.527 15.992 158.143 16.44C157.759 16.8667 157.567 17.4853 157.567 18.296C157.567 19.128 157.748 19.7787 158.111 20.248C158.495 20.7173 159.06 20.952 159.807 20.952ZM177.881 23.32C176.153 23.32 174.798 23.0427 173.817 22.488C172.836 21.912 172.142 20.9947 171.737 19.736C171.332 18.4773 171.129 16.824 171.129 14.776C171.129 12.792 171.353 11.2133 171.801 10.04C172.249 8.84533 172.974 7.98133 173.977 7.448C174.98 6.91467 176.292 6.648 177.913 6.648C178.297 6.648 178.756 6.68 179.289 6.744C179.844 6.78667 180.398 6.85067 180.953 6.936C181.529 7.02133 182.02 7.096 182.425 7.16L182.329 9.592C181.966 9.54933 181.54 9.50667 181.049 9.464C180.558 9.42133 180.089 9.38933 179.641 9.368C179.193 9.32533 178.82 9.304 178.521 9.304C177.369 9.304 176.473 9.48533 175.833 9.848C175.214 10.2107 174.777 10.7867 174.521 11.576C174.286 12.3653 174.169 13.432 174.169 14.776C174.169 16.2267 174.276 17.3893 174.489 18.264C174.724 19.1173 175.15 19.736 175.769 20.12C176.388 20.4827 177.305 20.664 178.521 20.664C178.82 20.664 179.193 20.6533 179.641 20.632C180.11 20.5893 180.59 20.5467 181.081 20.504C181.593 20.4613 182.03 20.4293 182.393 20.408L182.489 22.84C182.062 22.904 181.561 22.968 180.985 23.032C180.43 23.1173 179.876 23.1813 179.321 23.224C178.766 23.288 178.286 23.32 177.881 23.32ZM185.832 23V0.151999H188.808V13.4L191.112 13.304L195.272 6.968H198.568L193.704 14.424L198.792 23H195.496L191.176 15.928L188.808 16.024V23H185.832ZM202.032 15.608L201.808 0.952H205.008L204.784 15.608H202.032ZM201.808 23V19.032H205.008V23H201.808Z" fill="white"/>
</svg>
